<svg width="155" height="70" viewBox="0 0 155 70" fill="none" xmlns="http://www.w3.org/2000/svg">
<path d="M132.575 63.7671H131.589C131.261 63.7671 130.996 64.0286 130.996 64.3512V69.3341C130.996 69.6567 131.261 69.9182 131.589 69.9182H132.575C132.902 69.9182 133.168 69.6567 133.168 69.3341V64.3512C133.168 64.0286 132.902 63.7671 132.575 63.7671Z" fill="#41D335"/>
<path d="M129.456 63.7671H128.469C128.142 63.7671 127.877 64.0286 127.877 64.3512V69.3341C127.877 69.6567 128.142 69.9182 128.469 69.9182H129.456C129.783 69.9182 130.048 69.6567 130.048 69.3341V64.3512C130.048 64.0286 129.783 63.7671 129.456 63.7671Z" fill="#4AD535"/>
<path d="M126.336 63.7671H125.35C125.023 63.7671 124.757 64.0286 124.757 64.3512V69.3341C124.757 69.6567 125.023 69.9182 125.35 69.9182H126.336C126.664 69.9182 126.929 69.6567 126.929 69.3341V64.3512C126.929 64.0286 126.664 63.7671 126.336 63.7671Z" fill="#51D736"/>
<path d="M123.217 63.7671H122.231C121.903 63.7671 121.638 64.0286 121.638 64.3512V69.3341C121.638 69.6567 121.903 69.9182 122.231 69.9182H123.217C123.544 69.9182 123.81 69.6567 123.81 69.3341V64.3512C123.81 64.0286 123.544 63.7671 123.217 63.7671Z" fill="#5AD936"/>
<path d="M113.86 63.7671H112.874C112.547 63.7671 112.282 64.0286 112.282 64.3512V69.3341C112.282 69.6567 112.547 69.9182 112.874 69.9182H113.86C114.188 69.9182 114.453 69.6567 114.453 69.3341V64.3512C114.453 64.0286 114.188 63.7671 113.86 63.7671Z" fill="#75E037"/>
<path d="M110.741 63.7671H109.755C109.428 63.7671 109.162 64.0286 109.162 64.3512V69.3341C109.162 69.6567 109.428 69.9182 109.755 69.9182H110.741C111.068 69.9182 111.334 69.6567 111.334 69.3341V64.3512C111.334 64.0286 111.068 63.7671 110.741 63.7671Z" fill="#7EE237"/>
<path d="M107.623 63.7671H106.637C106.31 63.7671 106.044 64.0286 106.044 64.3512V69.3341C106.044 69.6567 106.31 69.9182 106.637 69.9182H107.623C107.95 69.9182 108.216 69.6567 108.216 69.3341V64.3512C108.216 64.0286 107.95 63.7671 107.623 63.7671Z" fill="#86E438"/>
<path d="M104.504 63.7671H103.518C103.19 63.7671 102.925 64.0286 102.925 64.3512V69.3341C102.925 69.6567 103.19 69.9182 103.518 69.9182H104.504C104.831 69.9182 105.096 69.6567 105.096 69.3341V64.3512C105.096 64.0286 104.831 63.7671 104.504 63.7671Z" fill="#8DE538"/>
<path d="M88.9087 63.7671H87.9224C87.5952 63.7671 87.3298 64.0286 87.3298 64.3512V69.3341C87.3298 69.6567 87.5952 69.9182 87.9224 69.9182H88.9087C89.236 69.9182 89.5013 69.6567 89.5013 69.3341V64.3512C89.5013 64.0286 89.236 63.7671 88.9087 63.7671Z" fill="#9BE339"/>
<path d="M85.7908 63.7671H84.8045C84.4772 63.7671 84.2119 64.0286 84.2119 64.3512V69.3341C84.2119 69.6567 84.4772 69.9182 84.8045 69.9182H85.7908C86.1181 69.9182 86.3834 69.6567 86.3834 69.3341V64.3512C86.3834 64.0286 86.1181 63.7671 85.7908 63.7671Z" fill="#9FE538"/>
<path d="M82.6714 63.7671H81.6851C81.3578 63.7671 81.0925 64.0286 81.0925 64.3512V69.3341C81.0925 69.6567 81.3578 69.9182 81.6851 69.9182H82.6714C82.9987 69.9182 83.264 69.6567 83.264 69.3341V64.3512C83.264 64.0286 82.9987 63.7671 82.6714 63.7671Z" fill="#A3E538"/>
<path d="M79.5521 63.7671H78.5659C78.2386 63.7671 77.9733 64.0286 77.9733 64.3512V69.3341C77.9733 69.6567 78.2386 69.9182 78.5659 69.9182H79.5521C79.8794 69.9182 80.1447 69.6567 80.1447 69.3341V64.3512C80.1447 64.0286 79.8794 63.7671 79.5521 63.7671Z" fill="#A5E538"/>
<path d="M76.4342 63.7671H75.4479C75.1206 63.7671 74.8553 64.0286 74.8553 64.3512V69.3341C74.8553 69.6567 75.1206 69.9182 75.4479 69.9182H76.4342C76.7615 69.9182 77.0268 69.6567 77.0268 69.3341V64.3512C77.0268 64.0286 76.7615 63.7671 76.4342 63.7671Z" fill="#A9E538"/>
<path d="M73.3148 63.7671H72.3285C72.0013 63.7671 71.736 64.0286 71.736 64.3512V69.3341C71.736 69.6567 72.0013 69.9182 72.3285 69.9182H73.3148C73.6421 69.9182 73.9074 69.6567 73.9074 69.3341V64.3512C73.9074 64.0286 73.6421 63.7671 73.3148 63.7671Z" fill="#ACE538"/>
<path d="M70.1956 63.7671H69.2093C68.882 63.7671 68.6167 64.0286 68.6167 64.3512V69.3341C68.6167 69.6567 68.882 69.9182 69.2093 69.9182H70.1956C70.5228 69.9182 70.7881 69.6567 70.7881 69.3341V64.3512C70.7881 64.0286 70.5228 63.7671 70.1956 63.7671Z" fill="#AFE538"/>
<path d="M51.4824 63.7671H50.4962C50.1689 63.7671 49.9036 64.0286 49.9036 64.3512V69.3341C49.9036 69.6567 50.1689 69.9182 50.4962 69.9182H51.4824C51.8097 69.9182 52.075 69.6567 52.075 69.3341V64.3512C52.075 64.0286 51.8097 63.7671 51.4824 63.7671Z" fill="#C2E538"/>
<path d="M48.363 63.7671H47.3768C47.0495 63.7671 46.7842 64.0286 46.7842 64.3512V69.3341C46.7842 69.6567 47.0495 69.9182 47.3768 69.9182H48.363C48.6903 69.9182 48.9556 69.6567 48.9556 69.3341V64.3512C48.9556 64.0286 48.6903 63.7671 48.363 63.7671Z" fill="#BDE238"/>
<path d="M45.2438 63.7671H44.2575C43.9302 63.7671 43.6649 64.0286 43.6649 64.3512V69.3341C43.6649 69.6567 43.9302 69.9182 44.2575 69.9182H45.2438C45.5711 69.9182 45.8364 69.6567 45.8364 69.3341V64.3512C45.8364 64.0286 45.5711 63.7671 45.2438 63.7671Z" fill="#B1DD37"/>
<path d="M42.1259 63.7671H41.1396C40.8123 63.7671 40.547 64.0286 40.547 64.3512V69.3341C40.547 69.6567 40.8123 69.9182 41.1396 69.9182H42.1259C42.4531 69.9182 42.7184 69.6567 42.7184 69.3341V64.3512C42.7184 64.0286 42.4531 63.7671 42.1259 63.7671Z" fill="#B4D845"/>
<path d="M23.4114 63.7671H22.4251C22.0978 63.7671 21.8325 64.0286 21.8325 64.3512V69.3341C21.8325 69.6567 22.0978 69.9182 22.4251 69.9182H23.4114C23.7387 69.9182 24.004 69.6567 24.004 69.3341V64.3512C24.004 64.0286 23.7387 63.7671 23.4114 63.7671Z" fill="#5BBA35"/>
<path d="M20.2933 63.7671H19.3071C18.9798 63.7671 18.7145 64.0286 18.7145 64.3512V69.3341C18.7145 69.6567 18.9798 69.9182 19.3071 69.9182H20.2933C20.6206 69.9182 20.8859 69.6567 20.8859 69.3341V64.3512C20.8859 64.0286 20.6206 63.7671 20.2933 63.7671Z" fill="#4FB434"/>
<path d="M17.1741 63.7671H16.1878C15.8605 63.7671 15.5952 64.0286 15.5952 64.3512V69.3341C15.5952 69.6567 15.8605 69.9182 16.1878 69.9182H17.1741C17.5014 69.9182 17.7667 69.6567 17.7667 69.3341V64.3512C17.7667 64.0286 17.5014 63.7671 17.1741 63.7671Z" fill="#42AF34"/>
<path d="M14.0547 63.7671H13.0684C12.7411 63.7671 12.4758 64.0286 12.4758 64.3512V69.3341C12.4758 69.6567 12.7411 69.9182 13.0684 69.9182H14.0547C14.382 69.9182 14.6473 69.6567 14.6473 69.3341V64.3512C14.6473 64.0286 14.382 63.7671 14.0547 63.7671Z" fill="#36AA34"/>
<path d="M10.9354 63.7671H9.94916C9.62188 63.7671 9.35657 64.0286 9.35657 64.3512V69.3341C9.35657 69.6567 9.62188 69.9182 9.94916 69.9182H10.9354C11.2627 69.9182 11.528 69.6567 11.528 69.3341V64.3512C11.528 64.0286 11.2627 63.7671 10.9354 63.7671Z" fill="#2BA633"/>
<path d="M7.8175 63.7671H6.83123C6.50395 63.7671 6.23865 64.0286 6.23865 64.3512V69.3341C6.23865 69.6567 6.50395 69.9182 6.83123 69.9182H7.8175C8.14478 69.9182 8.41009 69.6567 8.41009 69.3341V64.3512C8.41009 64.0286 8.14478 63.7671 7.8175 63.7671Z" fill="#1EA133"/>
<path d="M4.69813 63.7671H3.71185C3.38457 63.7671 3.11926 64.0286 3.11926 64.3512V69.3341C3.11926 69.6567 3.38457 69.9182 3.71185 69.9182H4.69813C5.0254 69.9182 5.29071 69.6567 5.29071 69.3341V64.3512C5.29071 64.0286 5.0254 63.7671 4.69813 63.7671Z" fill="#129B33"/>
<path d="M1.57886 63.7671H0.592588C0.265311 63.7671 0 64.0286 0 64.3512V69.3341C0 69.6567 0.265311 69.9182 0.592588 69.9182H1.57886C1.90614 69.9182 2.17145 69.6567 2.17145 69.3341V64.3512C2.17145 64.0286 1.90614 63.7671 1.57886 63.7671Z" fill="#059632"/>
<path d="M135.693 56.6809H134.707C134.379 56.6809 134.114 56.9424 134.114 57.2651V62.2479C134.114 62.5705 134.379 62.832 134.707 62.832H135.693C136.02 62.832 136.285 62.5705 136.285 62.2479V57.2651C136.285 56.9424 136.02 56.6809 135.693 56.6809Z" fill="#38D134"/>
<path d="M132.575 56.6809H131.589C131.261 56.6809 130.996 56.9424 130.996 57.2651V62.2479C130.996 62.5705 131.261 62.832 131.589 62.832H132.575C132.902 62.832 133.168 62.5705 133.168 62.2479V57.2651C133.168 56.9424 132.902 56.6809 132.575 56.6809Z" fill="#41D335"/>
<path d="M129.456 56.6809H128.469C128.142 56.6809 127.877 56.9424 127.877 57.2651V62.2479C127.877 62.5705 128.142 62.832 128.469 62.832H129.456C129.783 62.832 130.048 62.5705 130.048 62.2479V57.2651C130.048 56.9424 129.783 56.6809 129.456 56.6809Z" fill="#4AD535"/>
<path d="M126.336 56.6809H125.35C125.023 56.6809 124.757 56.9424 124.757 57.2651V62.2479C124.757 62.5705 125.023 62.832 125.35 62.832H126.336C126.664 62.832 126.929 62.5705 126.929 62.2479V57.2651C126.929 56.9424 126.664 56.6809 126.336 56.6809Z" fill="#51D736"/>
<path d="M113.86 56.6809H112.874C112.547 56.6809 112.282 56.9424 112.282 57.2651V62.2479C112.282 62.5705 112.547 62.832 112.874 62.832H113.86C114.188 62.832 114.453 62.5705 114.453 62.2479V57.2651C114.453 56.9424 114.188 56.6809 113.86 56.6809Z" fill="#75E037"/>
<path d="M110.741 56.6809H109.755C109.428 56.6809 109.162 56.9424 109.162 57.2651V62.2479C109.162 62.5705 109.428 62.832 109.755 62.832H110.741C111.068 62.832 111.334 62.5705 111.334 62.2479V57.2651C111.334 56.9424 111.068 56.6809 110.741 56.6809Z" fill="#7EE237"/>
<path d="M107.623 56.6809H106.637C106.31 56.6809 106.044 56.9424 106.044 57.2651V62.2479C106.044 62.5705 106.31 62.832 106.637 62.832H107.623C107.95 62.832 108.216 62.5705 108.216 62.2479V57.2651C108.216 56.9424 107.95 56.6809 107.623 56.6809Z" fill="#86E438"/>
<path d="M104.504 56.6809H103.518C103.19 56.6809 102.925 56.9424 102.925 57.2651V62.2479C102.925 62.5705 103.19 62.832 103.518 62.832H104.504C104.831 62.832 105.096 62.5705 105.096 62.2479V57.2651C105.096 56.9424 104.831 56.6809 104.504 56.6809Z" fill="#8DE538"/>
<path d="M92.0279 56.6809H91.0417C90.7144 56.6809 90.4491 56.9424 90.4491 57.2651V62.2479C90.4491 62.5705 90.7144 62.832 91.0417 62.832H92.0279C92.3552 62.832 92.6205 62.5705 92.6205 62.2479V57.2651C92.6205 56.9424 92.3552 56.6809 92.0279 56.6809Z" fill="#99E538"/>
<path d="M88.9087 56.6809H87.9224C87.5952 56.6809 87.3298 56.9424 87.3298 57.2651V62.2479C87.3298 62.5705 87.5952 62.832 87.9224 62.832H88.9087C89.236 62.832 89.5013 62.5705 89.5013 62.2479V57.2651C89.5013 56.9424 89.236 56.6809 88.9087 56.6809Z" fill="#9CE538"/>
<path d="M85.7908 56.6809H84.8045C84.4772 56.6809 84.2119 56.9424 84.2119 57.2651V62.2479C84.2119 62.5705 84.4772 62.832 84.8045 62.832H85.7908C86.1181 62.832 86.3834 62.5705 86.3834 62.2479V57.2651C86.3834 56.9424 86.1181 56.6809 85.7908 56.6809Z" fill="#9FE538"/>
<path d="M82.6714 56.6809H81.6851C81.3578 56.6809 81.0925 56.9424 81.0925 57.2651V62.2479C81.0925 62.5705 81.3578 62.832 81.6851 62.832H82.6714C82.9987 62.832 83.264 62.5705 83.264 62.2479V57.2651C83.264 56.9424 82.9987 56.6809 82.6714 56.6809Z" fill="#A3E538"/>
<path d="M79.5521 56.6809H78.5659C78.2386 56.6809 77.9733 56.9424 77.9733 57.2651V62.2479C77.9733 62.5705 78.2386 62.832 78.5659 62.832H79.5521C79.8794 62.832 80.1447 62.5705 80.1447 62.2479V57.2651C80.1447 56.9424 79.8794 56.6809 79.5521 56.6809Z" fill="#A7E43E"/>
<path d="M76.4342 56.6809H75.4479C75.1206 56.6809 74.8553 56.9424 74.8553 57.2651V62.2479C74.8553 62.5705 75.1206 62.832 75.4479 62.832H76.4342C76.7615 62.832 77.0268 62.5705 77.0268 62.2479V57.2651C77.0268 56.9424 76.7615 56.6809 76.4342 56.6809Z" fill="#A9E538"/>
<path d="M73.3148 56.6809H72.3285C72.0013 56.6809 71.736 56.9424 71.736 57.2651V62.2479C71.736 62.5705 72.0013 62.832 72.3285 62.832H73.3148C73.6421 62.832 73.9074 62.5705 73.9074 62.2479V57.2651C73.9074 56.9424 73.6421 56.6809 73.3148 56.6809Z" fill="#ACE538"/>
<path d="M70.1956 56.6809H69.2093C68.882 56.6809 68.6167 56.9424 68.6167 57.2651V62.2479C68.6167 62.5705 68.882 62.832 69.2093 62.832H70.1956C70.5228 62.832 70.7881 62.5705 70.7881 62.2479V57.2651C70.7881 56.9424 70.5228 56.6809 70.1956 56.6809Z" fill="#AFE538"/>
<path d="M67.0762 56.6809H66.0899C65.7626 56.6809 65.4973 56.9424 65.4973 57.2651V62.2479C65.4973 62.5705 65.7626 62.832 66.0899 62.832H67.0762C67.4035 62.832 67.6688 62.5705 67.6688 62.2479V57.2651C67.6688 56.9424 67.4035 56.6809 67.0762 56.6809Z" fill="#B2E538"/>
<path d="M63.9583 56.6809H62.972C62.6447 56.6809 62.3794 56.9424 62.3794 57.2651V62.2479C62.3794 62.5705 62.6447 62.832 62.972 62.832H63.9583C64.2855 62.832 64.5508 62.5705 64.5508 62.2479V57.2651C64.5508 56.9424 64.2855 56.6809 63.9583 56.6809Z" fill="#B6E538"/>
<path d="M51.4824 56.6809H50.4962C50.1689 56.6809 49.9036 56.9424 49.9036 57.2651V62.2479C49.9036 62.5705 50.1689 62.832 50.4962 62.832H51.4824C51.8097 62.832 52.075 62.5705 52.075 62.2479V57.2651C52.075 56.9424 51.8097 56.6809 51.4824 56.6809Z" fill="#C2E538"/>
<path d="M48.363 56.6809H47.3768C47.0495 56.6809 46.7842 56.9424 46.7842 57.2651V62.2479C46.7842 62.5705 47.0495 62.832 47.3768 62.832H48.363C48.6903 62.832 48.9556 62.5705 48.9556 62.2479V57.2651C48.9556 56.9424 48.6903 56.6809 48.363 56.6809Z" fill="#BDE238"/>
<path d="M45.2438 56.6809H44.2575C43.9302 56.6809 43.6649 56.9424 43.6649 57.2651V62.2479C43.6649 62.5705 43.9302 62.832 44.2575 62.832H45.2438C45.5711 62.832 45.8364 62.5705 45.8364 62.2479V57.2651C45.8364 56.9424 45.5711 56.6809 45.2438 56.6809Z" fill="#B1DD37"/>
<path d="M42.1259 56.6809H41.1396C40.8123 56.6809 40.547 56.9424 40.547 57.2651V62.2479C40.547 62.5705 40.8123 62.832 41.1396 62.832H42.1259C42.4531 62.832 42.7184 62.5705 42.7184 62.2479V57.2651C42.7184 56.9424 42.4531 56.6809 42.1259 56.6809Z" fill="#B4D845"/>
<path d="M29.6499 56.6809H28.6636C28.3364 56.6809 28.071 56.9424 28.071 57.2651V62.2479C28.071 62.5705 28.3364 62.832 28.6636 62.832H29.6499C29.9772 62.832 30.2425 62.5705 30.2425 62.2479V57.2651C30.2425 56.9424 29.9772 56.6809 29.6499 56.6809Z" fill="#74C436"/>
<path d="M26.5306 56.6809H25.5444C25.2171 56.6809 24.9518 56.9424 24.9518 57.2651V62.2479C24.9518 62.5705 25.2171 62.832 25.5444 62.832H26.5306C26.8579 62.832 27.1232 62.5705 27.1232 62.2479V57.2651C27.1232 56.9424 26.8579 56.6809 26.5306 56.6809Z" fill="#68BF35"/>
<path d="M23.4114 56.6809H22.4251C22.0978 56.6809 21.8325 56.9424 21.8325 57.2651V62.2479C21.8325 62.5705 22.0978 62.832 22.4251 62.832H23.4114C23.7387 62.832 24.004 62.5705 24.004 62.2479V57.2651C24.004 56.9424 23.7387 56.6809 23.4114 56.6809Z" fill="#5BBA35"/>
<path d="M20.2933 56.6809H19.3071C18.9798 56.6809 18.7145 56.9424 18.7145 57.2651V62.2479C18.7145 62.5705 18.9798 62.832 19.3071 62.832H20.2933C20.6206 62.832 20.8859 62.5705 20.8859 62.2479V57.2651C20.8859 56.9424 20.6206 56.6809 20.2933 56.6809Z" fill="#4FB434"/>
<path d="M17.1741 56.6809H16.1878C15.8605 56.6809 15.5952 56.9424 15.5952 57.2651V62.2479C15.5952 62.5705 15.8605 62.832 16.1878 62.832H17.1741C17.5014 62.832 17.7667 62.5705 17.7667 62.2479V57.2651C17.7667 56.9424 17.5014 56.6809 17.1741 56.6809Z" fill="#42AF34"/>
<path d="M14.0547 56.6809H13.0684C12.7411 56.6809 12.4758 56.9424 12.4758 57.2651V62.2479C12.4758 62.5705 12.7411 62.832 13.0684 62.832H14.0547C14.382 62.832 14.6473 62.5705 14.6473 62.2479V57.2651C14.6473 56.9424 14.382 56.6809 14.0547 56.6809Z" fill="#36AA34"/>
<path d="M10.9354 56.6809H9.94916C9.62188 56.6809 9.35657 56.9424 9.35657 57.2651V62.2479C9.35657 62.5705 9.62188 62.832 9.94916 62.832H10.9354C11.2627 62.832 11.528 62.5705 11.528 62.2479V57.2651C11.528 56.9424 11.2627 56.6809 10.9354 56.6809Z" fill="#2BA633"/>
<path d="M7.8175 56.6809H6.83123C6.50395 56.6809 6.23865 56.9424 6.23865 57.2651V62.2479C6.23865 62.5705 6.50395 62.832 6.83123 62.832H7.8175C8.14478 62.832 8.41009 62.5705 8.41009 62.2479V57.2651C8.41009 56.9424 8.14478 56.6809 7.8175 56.6809Z" fill="#1EA133"/>
<path d="M4.69813 56.6809H3.71185C3.38457 56.6809 3.11926 56.9424 3.11926 57.2651V62.2479C3.11926 62.5705 3.38457 62.832 3.71185 62.832H4.69813C5.0254 62.832 5.29071 62.5705 5.29071 62.2479V57.2651C5.29071 56.9424 5.0254 56.6809 4.69813 56.6809Z" fill="#129B33"/>
<path d="M1.57886 56.6809H0.592588C0.265311 56.6809 0 56.9424 0 57.2651V62.2479C0 62.5705 0.265311 62.832 0.592588 62.832H1.57886C1.90614 62.832 2.17145 62.5705 2.17145 62.2479V57.2651C2.17145 56.9424 1.90614 56.6809 1.57886 56.6809Z" fill="#059632"/>
<path d="M138.812 49.595H137.826C137.499 49.595 137.233 49.8565 137.233 50.1791V55.1619C137.233 55.4846 137.499 55.7461 137.826 55.7461H138.812C139.14 55.7461 139.405 55.4846 139.405 55.1619V50.1791C139.405 49.8565 139.14 49.595 138.812 49.595Z" fill="#2FCF34"/>
<path d="M135.693 49.595H134.707C134.379 49.595 134.114 49.8565 134.114 50.1791V55.1619C134.114 55.4846 134.379 55.7461 134.707 55.7461H135.693C136.02 55.7461 136.285 55.4846 136.285 55.1619V50.1791C136.285 49.8565 136.02 49.595 135.693 49.595Z" fill="#38D134"/>
<path d="M132.575 49.595H131.589C131.261 49.595 130.996 49.8565 130.996 50.1791V55.1619C130.996 55.4846 131.261 55.7461 131.589 55.7461H132.575C132.902 55.7461 133.168 55.4846 133.168 55.1619V50.1791C133.168 49.8565 132.902 49.595 132.575 49.595Z" fill="#41D335"/>
<path d="M129.456 49.595H128.469C128.142 49.595 127.877 49.8565 127.877 50.1791V55.1619C127.877 55.4846 128.142 55.7461 128.469 55.7461H129.456C129.783 55.7461 130.048 55.4846 130.048 55.1619V50.1791C130.048 49.8565 129.783 49.595 129.456 49.595Z" fill="#4AD535"/>
<path d="M113.86 49.595H112.874C112.547 49.595 112.282 49.8565 112.282 50.1791V55.1619C112.282 55.4846 112.547 55.7461 112.874 55.7461H113.86C114.188 55.7461 114.453 55.4846 114.453 55.1619V50.1791C114.453 49.8565 114.188 49.595 113.86 49.595Z" fill="#75E037"/>
<path d="M110.741 49.595H109.755C109.428 49.595 109.162 49.8565 109.162 50.1791V55.1619C109.162 55.4846 109.428 55.7461 109.755 55.7461H110.741C111.068 55.7461 111.334 55.4846 111.334 55.1619V50.1791C111.334 49.8565 111.068 49.595 110.741 49.595Z" fill="#7EE237"/>
<path d="M107.623 49.595H106.637C106.31 49.595 106.044 49.8565 106.044 50.1791V55.1619C106.044 55.4846 106.31 55.7461 106.637 55.7461H107.623C107.95 55.7461 108.216 55.4846 108.216 55.1619V50.1791C108.216 49.8565 107.95 49.595 107.623 49.595Z" fill="#86E438"/>
<path d="M104.504 49.595H103.518C103.19 49.595 102.925 49.8565 102.925 50.1791V55.1619C102.925 55.4846 103.19 55.7461 103.518 55.7461H104.504C104.831 55.7461 105.096 55.4846 105.096 55.1619V50.1791C105.096 49.8565 104.831 49.595 104.504 49.595Z" fill="#8DE538"/>
<path d="M95.1473 49.595H94.1611C93.8338 49.595 93.5685 49.8565 93.5685 50.1791V55.1619C93.5685 55.4846 93.8338 55.7461 94.1611 55.7461H95.1473C95.4746 55.7461 95.7399 55.4846 95.7399 55.1619V50.1791C95.7399 49.8565 95.4746 49.595 95.1473 49.595Z" fill="#96E538"/>
<path d="M92.0279 49.595H91.0417C90.7144 49.595 90.4491 49.8565 90.4491 50.1791V55.1619C90.4491 55.4846 90.7144 55.7461 91.0417 55.7461H92.0279C92.3552 55.7461 92.6205 55.4846 92.6205 55.1619V50.1791C92.6205 49.8565 92.3552 49.595 92.0279 49.595Z" fill="#99E538"/>
<path d="M88.9087 49.595H87.9224C87.5952 49.595 87.3298 49.8565 87.3298 50.1791V55.1619C87.3298 55.4846 87.5952 55.7461 87.9224 55.7461H88.9087C89.236 55.7461 89.5013 55.4846 89.5013 55.1619V50.1791C89.5013 49.8565 89.236 49.595 88.9087 49.595Z" fill="#9CE538"/>
<path d="M85.7908 49.595H84.8045C84.4772 49.595 84.2119 49.8565 84.2119 50.1791V55.1619C84.2119 55.4846 84.4772 55.7461 84.8045 55.7461H85.7908C86.1181 55.7461 86.3834 55.4846 86.3834 55.1619V50.1791C86.3834 49.8565 86.1181 49.595 85.7908 49.595Z" fill="#9FE538"/>
<path d="M73.3148 49.595H72.3285C72.0013 49.595 71.736 49.8565 71.736 50.1791V55.1619C71.736 55.4846 72.0013 55.7461 72.3285 55.7461H73.3148C73.6421 55.7461 73.9074 55.4846 73.9074 55.1619V50.1791C73.9074 49.8565 73.6421 49.595 73.3148 49.595Z" fill="#ACE538"/>
<path d="M70.1956 49.595H69.2093C68.882 49.595 68.6167 49.8565 68.6167 50.1791V55.1619C68.6167 55.4846 68.882 55.7461 69.2093 55.7461H70.1956C70.5228 55.7461 70.7881 55.4846 70.7881 55.1619V50.1791C70.7881 49.8565 70.5228 49.595 70.1956 49.595Z" fill="#AFE538"/>
<path d="M67.0762 49.595H66.0899C65.7626 49.595 65.4973 49.8565 65.4973 50.1791V55.1619C65.4973 55.4846 65.7626 55.7461 66.0899 55.7461H67.0762C67.4035 55.7461 67.6688 55.4846 67.6688 55.1619V50.1791C67.6688 49.8565 67.4035 49.595 67.0762 49.595Z" fill="#B2E538"/>
<path d="M63.9583 49.595H62.972C62.6447 49.595 62.3794 49.8565 62.3794 50.1791V55.1619C62.3794 55.4846 62.6447 55.7461 62.972 55.7461H63.9583C64.2855 55.7461 64.5508 55.4846 64.5508 55.1619V50.1791C64.5508 49.8565 64.2855 49.595 63.9583 49.595Z" fill="#B6E538"/>
<path d="M51.4824 49.595H50.4962C50.1689 49.595 49.9036 49.8565 49.9036 50.1791V55.1619C49.9036 55.4846 50.1689 55.7461 50.4962 55.7461H51.4824C51.8097 55.7461 52.075 55.4846 52.075 55.1619V50.1791C52.075 49.8565 51.8097 49.595 51.4824 49.595Z" fill="#C2E538"/>
<path d="M48.363 49.595H47.3768C47.0495 49.595 46.7842 49.8565 46.7842 50.1791V55.1619C46.7842 55.4846 47.0495 55.7461 47.3768 55.7461H48.363C48.6903 55.7461 48.9556 55.4846 48.9556 55.1619V50.1791C48.9556 49.8565 48.6903 49.595 48.363 49.595Z" fill="#BDE238"/>
<path d="M45.2438 49.595H44.2575C43.9302 49.595 43.6649 49.8565 43.6649 50.1791V55.1619C43.6649 55.4846 43.9302 55.7461 44.2575 55.7461H45.2438C45.5711 55.7461 45.8364 55.4846 45.8364 55.1619V50.1791C45.8364 49.8565 45.5711 49.595 45.2438 49.595Z" fill="#B1DD37"/>
<path d="M42.1259 49.595H41.1396C40.8123 49.595 40.547 49.8565 40.547 50.1791V55.1619C40.547 55.4846 40.8123 55.7461 41.1396 55.7461H42.1259C42.4531 55.7461 42.7184 55.4846 42.7184 55.1619V50.1791C42.7184 49.8565 42.4531 49.595 42.1259 49.595Z" fill="#B4D845"/>
<path d="M32.7678 49.595H31.7816C31.4543 49.595 31.189 49.8565 31.189 50.1791V55.1619C31.189 55.4846 31.4543 55.7461 31.7816 55.7461H32.7678C33.0951 55.7461 33.3604 55.4846 33.3604 55.1619V50.1791C33.3604 49.8565 33.0951 49.595 32.7678 49.595Z" fill="#81C936"/>
<path d="M29.6499 49.595H28.6636C28.3364 49.595 28.071 49.8565 28.071 50.1791V55.1619C28.071 55.4846 28.3364 55.7461 28.6636 55.7461H29.6499C29.9772 55.7461 30.2425 55.4846 30.2425 55.1619V50.1791C30.2425 49.8565 29.9772 49.595 29.6499 49.595Z" fill="#74C436"/>
<path d="M26.5306 49.595H25.5444C25.2171 49.595 24.9518 49.8565 24.9518 50.1791V55.1619C24.9518 55.4846 25.2171 55.7461 25.5444 55.7461H26.5306C26.8579 55.7461 27.1232 55.4846 27.1232 55.1619V50.1791C27.1232 49.8565 26.8579 49.595 26.5306 49.595Z" fill="#68BF35"/>
<path d="M23.4114 49.595H22.4251C22.0978 49.595 21.8325 49.8565 21.8325 50.1791V55.1619C21.8325 55.4846 22.0978 55.7461 22.4251 55.7461H23.4114C23.7387 55.7461 24.004 55.4846 24.004 55.1619V50.1791C24.004 49.8565 23.7387 49.595 23.4114 49.595Z" fill="#5BBA35"/>
<path d="M10.9354 49.595H9.94916C9.62188 49.595 9.35657 49.8565 9.35657 50.1791V55.1619C9.35657 55.4846 9.62188 55.7461 9.94916 55.7461H10.9354C11.2627 55.7461 11.528 55.4846 11.528 55.1619V50.1791C11.528 49.8565 11.2627 49.595 10.9354 49.595Z" fill="#2BA633"/>
<path d="M7.8175 49.595H6.83123C6.50395 49.595 6.23865 49.8565 6.23865 50.1791V55.1619C6.23865 55.4846 6.50395 55.7461 6.83123 55.7461H7.8175C8.14478 55.7461 8.41009 55.4846 8.41009 55.1619V50.1791C8.41009 49.8565 8.14478 49.595 7.8175 49.595Z" fill="#1EA133"/>
<path d="M4.69813 49.595H3.71185C3.38457 49.595 3.11926 49.8565 3.11926 50.1791V55.1619C3.11926 55.4846 3.38457 55.7461 3.71185 55.7461H4.69813C5.0254 55.7461 5.29071 55.4846 5.29071 55.1619V50.1791C5.29071 49.8565 5.0254 49.595 4.69813 49.595Z" fill="#129B33"/>
<path d="M1.57886 49.595H0.592588C0.265311 49.595 0 49.8565 0 50.1791V55.1619C0 55.4846 0.265311 55.7461 0.592588 55.7461H1.57886C1.90614 55.7461 2.17145 55.4846 2.17145 55.1619V50.1791C2.17145 49.8565 1.90614 49.595 1.57886 49.595Z" fill="#059632"/>
<path d="M141.932 42.5112H140.945C140.618 42.5112 140.353 42.7728 140.353 43.0954V48.0782C140.353 48.4008 140.618 48.6624 140.945 48.6624H141.932C142.259 48.6624 142.524 48.4008 142.524 48.0782V43.0954C142.524 42.7728 142.259 42.5112 141.932 42.5112Z" fill="#26CD34"/>
<path d="M138.812 42.5112H137.826C137.499 42.5112 137.233 42.7728 137.233 43.0954V48.0782C137.233 48.4008 137.499 48.6624 137.826 48.6624H138.812C139.14 48.6624 139.405 48.4008 139.405 48.0782V43.0954C139.405 42.7728 139.14 42.5112 138.812 42.5112Z" fill="#2FCF34"/>
<path d="M135.693 42.5112H134.707C134.379 42.5112 134.114 42.7728 134.114 43.0954V48.0782C134.114 48.4008 134.379 48.6624 134.707 48.6624H135.693C136.02 48.6624 136.285 48.4008 136.285 48.0782V43.0954C136.285 42.7728 136.02 42.5112 135.693 42.5112Z" fill="#38D134"/>
<path d="M132.575 42.5112H131.589C131.261 42.5112 130.996 42.7728 130.996 43.0954V48.0782C130.996 48.4008 131.261 48.6624 131.589 48.6624H132.575C132.902 48.6624 133.168 48.4008 133.168 48.0782V43.0954C133.168 42.7728 132.902 42.5112 132.575 42.5112Z" fill="#41D335"/>
<path d="M113.86 42.5112H112.874C112.547 42.5112 112.282 42.7728 112.282 43.0954V48.0782C112.282 48.4008 112.547 48.6624 112.874 48.6624H113.86C114.188 48.6624 114.453 48.4008 114.453 48.0782V43.0954C114.453 42.7728 114.188 42.5112 113.86 42.5112Z" fill="#75E037"/>
<path d="M110.741 42.5112H109.755C109.428 42.5112 109.162 42.7728 109.162 43.0954V48.0782C109.162 48.4008 109.428 48.6624 109.755 48.6624H110.741C111.068 48.6624 111.334 48.4008 111.334 48.0782V43.0954C111.334 42.7728 111.068 42.5112 110.741 42.5112Z" fill="#7EE237"/>
<path d="M107.623 42.5112H106.637C106.31 42.5112 106.044 42.7728 106.044 43.0954V48.0782C106.044 48.4008 106.31 48.6624 106.637 48.6624H107.623C107.95 48.6624 108.216 48.4008 108.216 48.0782V43.0954C108.216 42.7728 107.95 42.5112 107.623 42.5112Z" fill="#86E438"/>
<path d="M104.504 42.5112H103.518C103.19 42.5112 102.925 42.7728 102.925 43.0954V48.0782C102.925 48.4008 103.19 48.6624 103.518 48.6624H104.504C104.831 48.6624 105.096 48.4008 105.096 48.0782V43.0954C105.096 42.7728 104.831 42.5112 104.504 42.5112Z" fill="#8DE538"/>
<path d="M95.1473 42.5112H94.1611C93.8338 42.5112 93.5685 42.7728 93.5685 43.0954V48.0782C93.5685 48.4008 93.8338 48.6624 94.1611 48.6624H95.1473C95.4746 48.6624 95.7399 48.4008 95.7399 48.0782V43.0954C95.7399 42.7728 95.4746 42.5112 95.1473 42.5112Z" fill="#96E538"/>
<path d="M92.0279 42.5112H91.0417C90.7144 42.5112 90.4491 42.7728 90.4491 43.0954V48.0782C90.4491 48.4008 90.7144 48.6624 91.0417 48.6624H92.0279C92.3552 48.6624 92.6205 48.4008 92.6205 48.0782V43.0954C92.6205 42.7728 92.3552 42.5112 92.0279 42.5112Z" fill="#99E538"/>
<path d="M88.9087 42.5112H87.9224C87.5952 42.5112 87.3298 42.7728 87.3298 43.0954V48.0782C87.3298 48.4008 87.5952 48.6624 87.9224 48.6624H88.9087C89.236 48.6624 89.5013 48.4008 89.5013 48.0782V43.0954C89.5013 42.7728 89.236 42.5112 88.9087 42.5112Z" fill="#9CE538"/>
<path d="M85.7908 42.5112H84.8045C84.4772 42.5112 84.2119 42.7728 84.2119 43.0954V48.0782C84.2119 48.4008 84.4772 48.6624 84.8045 48.6624H85.7908C86.1181 48.6624 86.3834 48.4008 86.3834 48.0782V43.0954C86.3834 42.7728 86.1181 42.5112 85.7908 42.5112Z" fill="#9FE538"/>
<path d="M82.6714 42.5112H81.6851C81.3578 42.5112 81.0925 42.7728 81.0925 43.0954V48.0782C81.0925 48.4008 81.3578 48.6624 81.6851 48.6624H82.6714C82.9987 48.6624 83.264 48.4008 83.264 48.0782V43.0954C83.264 42.7728 82.9987 42.5112 82.6714 42.5112Z" fill="#A3E538"/>
<path d="M79.5521 42.5112H78.5659C78.2386 42.5112 77.9733 42.7728 77.9733 43.0954V48.0782C77.9733 48.4008 78.2386 48.6624 78.5659 48.6624H79.5521C79.8794 48.6624 80.1447 48.4008 80.1447 48.0782V43.0954C80.1447 42.7728 79.8794 42.5112 79.5521 42.5112Z" fill="#A5E538"/>
<path d="M73.3148 42.5112H72.3285C72.0013 42.5112 71.736 42.7728 71.736 43.0954V48.0782C71.736 48.4008 72.0013 48.6624 72.3285 48.6624H73.3148C73.6421 48.6624 73.9074 48.4008 73.9074 48.0782V43.0954C73.9074 42.7728 73.6421 42.5112 73.3148 42.5112Z" fill="#ACE538"/>
<path d="M70.1956 42.5112H69.2093C68.882 42.5112 68.6167 42.7728 68.6167 43.0954V48.0782C68.6167 48.4008 68.882 48.6624 69.2093 48.6624H70.1956C70.5228 48.6624 70.7881 48.4008 70.7881 48.0782V43.0954C70.7881 42.7728 70.5228 42.5112 70.1956 42.5112Z" fill="#AFE538"/>
<path d="M67.0762 42.5112H66.0899C65.7626 42.5112 65.4973 42.7728 65.4973 43.0954V48.0782C65.4973 48.4008 65.7626 48.6624 66.0899 48.6624H67.0762C67.4035 48.6624 67.6688 48.4008 67.6688 48.0782V43.0954C67.6688 42.7728 67.4035 42.5112 67.0762 42.5112Z" fill="#B2E538"/>
<path d="M63.9583 42.5112H62.972C62.6447 42.5112 62.3794 42.7728 62.3794 43.0954V48.0782C62.3794 48.4008 62.6447 48.6624 62.972 48.6624H63.9583C64.2855 48.6624 64.5508 48.4008 64.5508 48.0782V43.0954C64.5508 42.7728 64.2855 42.5112 63.9583 42.5112Z" fill="#B6E538"/>
<path d="M51.4824 42.5112H50.4962C50.1689 42.5112 49.9036 42.7728 49.9036 43.0954V48.0782C49.9036 48.4008 50.1689 48.6624 50.4962 48.6624H51.4824C51.8097 48.6624 52.075 48.4008 52.075 48.0782V43.0954C52.075 42.7728 51.8097 42.5112 51.4824 42.5112Z" fill="#C2E538"/>
<path d="M48.363 42.5112H47.3768C47.0495 42.5112 46.7842 42.7728 46.7842 43.0954V48.0782C46.7842 48.4008 47.0495 48.6624 47.3768 48.6624H48.363C48.6903 48.6624 48.9556 48.4008 48.9556 48.0782V43.0954C48.9556 42.7728 48.6903 42.5112 48.363 42.5112Z" fill="#BDE238"/>
<path d="M45.2438 42.5112H44.2575C43.9302 42.5112 43.6649 42.7728 43.6649 43.0954V48.0782C43.6649 48.4008 43.9302 48.6624 44.2575 48.6624H45.2438C45.5711 48.6624 45.8364 48.4008 45.8364 48.0782V43.0954C45.8364 42.7728 45.5711 42.5112 45.2438 42.5112Z" fill="#B1DD37"/>
<path d="M42.1259 42.5112H41.1396C40.8123 42.5112 40.547 42.7728 40.547 43.0954V48.0782C40.547 48.4008 40.8123 48.6624 41.1396 48.6624H42.1259C42.4531 48.6624 42.7184 48.4008 42.7184 48.0782V43.0954C42.7184 42.7728 42.4531 42.5112 42.1259 42.5112Z" fill="#B4D845"/>
<path d="M32.7678 42.5112H31.7816C31.4543 42.5112 31.189 42.7728 31.189 43.0954V48.0782C31.189 48.4008 31.4543 48.6624 31.7816 48.6624H32.7678C33.0951 48.6624 33.3604 48.4008 33.3604 48.0782V43.0954C33.3604 42.7728 33.0951 42.5112 32.7678 42.5112Z" fill="#81C936"/>
<path d="M29.6499 42.5112H28.6636C28.3364 42.5112 28.071 42.7728 28.071 43.0954V48.0782C28.071 48.4008 28.3364 48.6624 28.6636 48.6624H29.6499C29.9772 48.6624 30.2425 48.4008 30.2425 48.0782V43.0954C30.2425 42.7728 29.9772 42.5112 29.6499 42.5112Z" fill="#74C436"/>
<path d="M26.5306 42.5112H25.5444C25.2171 42.5112 24.9518 42.7728 24.9518 43.0954V48.0782C24.9518 48.4008 25.2171 48.6624 25.5444 48.6624H26.5306C26.8579 48.6624 27.1232 48.4008 27.1232 48.0782V43.0954C27.1232 42.7728 26.8579 42.5112 26.5306 42.5112Z" fill="#68BF35"/>
<path d="M23.4114 42.5112H22.4251C22.0978 42.5112 21.8325 42.7728 21.8325 43.0954V48.0782C21.8325 48.4008 22.0978 48.6624 22.4251 48.6624H23.4114C23.7387 48.6624 24.004 48.4008 24.004 48.0782V43.0954C24.004 42.7728 23.7387 42.5112 23.4114 42.5112Z" fill="#5BBA35"/>
<path d="M10.9354 42.5112H9.94916C9.62188 42.5112 9.35657 42.7728 9.35657 43.0954V48.0782C9.35657 48.4008 9.62188 48.6624 9.94916 48.6624H10.9354C11.2627 48.6624 11.528 48.4008 11.528 48.0782V43.0954C11.528 42.7728 11.2627 42.5112 10.9354 42.5112Z" fill="#2BA633"/>
<path d="M7.8175 42.5112H6.83123C6.50395 42.5112 6.23865 42.7728 6.23865 43.0954V48.0782C6.23865 48.4008 6.50395 48.6624 6.83123 48.6624H7.8175C8.14478 48.6624 8.41009 48.4008 8.41009 48.0782V43.0954C8.41009 42.7728 8.14478 42.5112 7.8175 42.5112Z" fill="#1EA133"/>
<path d="M4.69813 42.5112H3.71185C3.38457 42.5112 3.11926 42.7728 3.11926 43.0954V48.0782C3.11926 48.4008 3.38457 48.6624 3.71185 48.6624H4.69813C5.0254 48.6624 5.29071 48.4008 5.29071 48.0782V43.0954C5.29071 42.7728 5.0254 42.5112 4.69813 42.5112Z" fill="#129B33"/>
<path d="M1.57886 42.5112H0.592588C0.265311 42.5112 0 42.7728 0 43.0954V48.0782C0 48.4008 0.265311 48.6624 0.592588 48.6624H1.57886C1.90614 48.6624 2.17145 48.4008 2.17145 48.0782V43.0954C2.17145 42.7728 1.90614 42.5112 1.57886 42.5112Z" fill="#059632"/>
<path d="M145.049 35.425H144.063C143.736 35.425 143.471 35.6866 143.471 36.0092V40.992C143.471 41.3146 143.736 41.5762 144.063 41.5762H145.049C145.377 41.5762 145.642 41.3146 145.642 40.992V36.0092C145.642 35.6866 145.377 35.425 145.049 35.425Z" fill="#21CA35"/>
<path d="M141.932 35.425H140.945C140.618 35.425 140.353 35.6866 140.353 36.0092V40.992C140.353 41.3146 140.618 41.5762 140.945 41.5762H141.932C142.259 41.5762 142.524 41.3146 142.524 40.992V36.0092C142.524 35.6866 142.259 35.425 141.932 35.425Z" fill="#26CD34"/>
<path d="M138.812 35.425H137.826C137.499 35.425 137.233 35.6866 137.233 36.0092V40.992C137.233 41.3146 137.499 41.5762 137.826 41.5762H138.812C139.14 41.5762 139.405 41.3146 139.405 40.992V36.0092C139.405 35.6866 139.14 35.425 138.812 35.425Z" fill="#2FCF34"/>
<path d="M135.693 35.425H134.707C134.379 35.425 134.114 35.6866 134.114 36.0092V40.992C134.114 41.3146 134.379 41.5762 134.707 41.5762H135.693C136.02 41.5762 136.285 41.3146 136.285 40.992V36.0092C136.285 35.6866 136.02 35.425 135.693 35.425Z" fill="#38D134"/>
<path d="M113.86 35.425H112.874C112.547 35.425 112.282 35.6866 112.282 36.0092V40.992C112.282 41.3146 112.547 41.5762 112.874 41.5762H113.86C114.188 41.5762 114.453 41.3146 114.453 40.992V36.0092C114.453 35.6866 114.188 35.425 113.86 35.425Z" fill="#75E037"/>
<path d="M110.741 35.425H109.755C109.428 35.425 109.162 35.6866 109.162 36.0092V40.992C109.162 41.3146 109.428 41.5762 109.755 41.5762H110.741C111.068 41.5762 111.334 41.3146 111.334 40.992V36.0092C111.334 35.6866 111.068 35.425 110.741 35.425Z" fill="#7EE237"/>
<path d="M107.623 35.425H106.637C106.31 35.425 106.044 35.6866 106.044 36.0092V40.992C106.044 41.3146 106.31 41.5762 106.637 41.5762H107.623C107.95 41.5762 108.216 41.3146 108.216 40.992V36.0092C108.216 35.6866 107.95 35.425 107.623 35.425Z" fill="#86E438"/>
<path d="M104.504 35.425H103.518C103.19 35.425 102.925 35.6866 102.925 36.0092V40.992C102.925 41.3146 103.19 41.5762 103.518 41.5762H104.504C104.831 41.5762 105.096 41.3146 105.096 40.992V36.0092C105.096 35.6866 104.831 35.425 104.504 35.425Z" fill="#8DE538"/>
<path d="M95.1473 35.425H94.1611C93.8338 35.425 93.5685 35.6866 93.5685 36.0092V40.992C93.5685 41.3146 93.8338 41.5762 94.1611 41.5762H95.1473C95.4746 41.5762 95.7399 41.3146 95.7399 40.992V36.0092C95.7399 35.6866 95.4746 35.425 95.1473 35.425Z" fill="#96E538"/>
<path d="M92.0279 35.425H91.0417C90.7144 35.425 90.4491 35.6866 90.4491 36.0092V40.992C90.4491 41.3146 90.7144 41.5762 91.0417 41.5762H92.0279C92.3552 41.5762 92.6205 41.3146 92.6205 40.992V36.0092C92.6205 35.6866 92.3552 35.425 92.0279 35.425Z" fill="#99E538"/>
<path d="M88.9087 35.425H87.9224C87.5952 35.425 87.3298 35.6866 87.3298 36.0092V40.992C87.3298 41.3146 87.5952 41.5762 87.9224 41.5762H88.9087C89.236 41.5762 89.5013 41.3146 89.5013 40.992V36.0092C89.5013 35.6866 89.236 35.425 88.9087 35.425Z" fill="#9CE538"/>
<path d="M85.7908 35.425H84.8045C84.4772 35.425 84.2119 35.6866 84.2119 36.0092V40.992C84.2119 41.3146 84.4772 41.5762 84.8045 41.5762H85.7908C86.1181 41.5762 86.3834 41.3146 86.3834 40.992V36.0092C86.3834 35.6866 86.1181 35.425 85.7908 35.425Z" fill="#9FE538"/>
<path d="M82.6714 35.425H81.6851C81.3578 35.425 81.0925 35.6866 81.0925 36.0092V40.992C81.0925 41.3146 81.3578 41.5762 81.6851 41.5762H82.6714C82.9987 41.5762 83.264 41.3146 83.264 40.992V36.0092C83.264 35.6866 82.9987 35.425 82.6714 35.425Z" fill="#A3E538"/>
<path d="M79.5521 35.425H78.5659C78.2386 35.425 77.9733 35.6866 77.9733 36.0092V40.992C77.9733 41.3146 78.2386 41.5762 78.5659 41.5762H79.5521C79.8794 41.5762 80.1447 41.3146 80.1447 40.992V36.0092C80.1447 35.6866 79.8794 35.425 79.5521 35.425Z" fill="#A5E538"/>
<path d="M73.3148 35.425H72.3285C72.0013 35.425 71.736 35.6866 71.736 36.0092V40.992C71.736 41.3146 72.0013 41.5762 72.3285 41.5762H73.3148C73.6421 41.5762 73.9074 41.3146 73.9074 40.992V36.0092C73.9074 35.6866 73.6421 35.425 73.3148 35.425Z" fill="#ACE538"/>
<path d="M70.1956 35.425H69.2093C68.882 35.425 68.6167 35.6866 68.6167 36.0092V40.992C68.6167 41.3146 68.882 41.5762 69.2093 41.5762H70.1956C70.5228 41.5762 70.7881 41.3146 70.7881 40.992V36.0092C70.7881 35.6866 70.5228 35.425 70.1956 35.425Z" fill="#AFE538"/>
<path d="M67.0762 35.425H66.0899C65.7626 35.425 65.4973 35.6866 65.4973 36.0092V40.992C65.4973 41.3146 65.7626 41.5762 66.0899 41.5762H67.0762C67.4035 41.5762 67.6688 41.3146 67.6688 40.992V36.0092C67.6688 35.6866 67.4035 35.425 67.0762 35.425Z" fill="#B2E538"/>
<path d="M63.9583 35.425H62.972C62.6447 35.425 62.3794 35.6866 62.3794 36.0092V40.992C62.3794 41.3146 62.6447 41.5762 62.972 41.5762H63.9583C64.2855 41.5762 64.5508 41.3146 64.5508 40.992V36.0092C64.5508 35.6866 64.2855 35.425 63.9583 35.425Z" fill="#B6E538"/>
<path d="M51.4824 35.425H50.4962C50.1689 35.425 49.9036 35.6866 49.9036 36.0092V40.992C49.9036 41.3146 50.1689 41.5762 50.4962 41.5762H51.4824C51.8097 41.5762 52.075 41.3146 52.075 40.992V36.0092C52.075 35.6866 51.8097 35.425 51.4824 35.425Z" fill="#C2E538"/>
<path d="M48.363 35.425H47.3768C47.0495 35.425 46.7842 35.6866 46.7842 36.0092V40.992C46.7842 41.3146 47.0495 41.5762 47.3768 41.5762H48.363C48.6903 41.5762 48.9556 41.3146 48.9556 40.992V36.0092C48.9556 35.6866 48.6903 35.425 48.363 35.425Z" fill="#BDE238"/>
<path d="M45.2438 35.425H44.2575C43.9302 35.425 43.6649 35.6866 43.6649 36.0092V40.992C43.6649 41.3146 43.9302 41.5762 44.2575 41.5762H45.2438C45.5711 41.5762 45.8364 41.3146 45.8364 40.992V36.0092C45.8364 35.6866 45.5711 35.425 45.2438 35.425Z" fill="#B1DD37"/>
<path d="M42.1259 35.425H41.1396C40.8123 35.425 40.547 35.6866 40.547 36.0092V40.992C40.547 41.3146 40.8123 41.5762 41.1396 41.5762H42.1259C42.4531 41.5762 42.7184 41.3146 42.7184 40.992V36.0092C42.7184 35.6866 42.4531 35.425 42.1259 35.425Z" fill="#B4D845"/>
<path d="M32.7678 35.425H31.7816C31.4543 35.425 31.189 35.6866 31.189 36.0092V40.992C31.189 41.3146 31.4543 41.5762 31.7816 41.5762H32.7678C33.0951 41.5762 33.3604 41.3146 33.3604 40.992V36.0092C33.3604 35.6866 33.0951 35.425 32.7678 35.425Z" fill="#81C936"/>
<path d="M29.6499 35.425H28.6636C28.3364 35.425 28.071 35.6866 28.071 36.0092V40.992C28.071 41.3146 28.3364 41.5762 28.6636 41.5762H29.6499C29.9772 41.5762 30.2425 41.3146 30.2425 40.992V36.0092C30.2425 35.6866 29.9772 35.425 29.6499 35.425Z" fill="#74C436"/>
<path d="M26.5306 35.425H25.5444C25.2171 35.425 24.9518 35.6866 24.9518 36.0092V40.992C24.9518 41.3146 25.2171 41.5762 25.5444 41.5762H26.5306C26.8579 41.5762 27.1232 41.3146 27.1232 40.992V36.0092C27.1232 35.6866 26.8579 35.425 26.5306 35.425Z" fill="#68BF35"/>
<path d="M23.4114 35.425H22.4251C22.0978 35.425 21.8325 35.6866 21.8325 36.0092V40.992C21.8325 41.3146 22.0978 41.5762 22.4251 41.5762H23.4114C23.7387 41.5762 24.004 41.3146 24.004 40.992V36.0092C24.004 35.6866 23.7387 35.425 23.4114 35.425Z" fill="#5BBA35"/>
<path d="M10.9354 35.425H9.94916C9.62188 35.425 9.35657 35.6866 9.35657 36.0092V40.992C9.35657 41.3146 9.62188 41.5762 9.94916 41.5762H10.9354C11.2627 41.5762 11.528 41.3146 11.528 40.992V36.0092C11.528 35.6866 11.2627 35.425 10.9354 35.425Z" fill="#2BA633"/>
<path d="M7.8175 35.425H6.83123C6.50395 35.425 6.23865 35.6866 6.23865 36.0092V40.992C6.23865 41.3146 6.50395 41.5762 6.83123 41.5762H7.8175C8.14478 41.5762 8.41009 41.3146 8.41009 40.992V36.0092C8.41009 35.6866 8.14478 35.425 7.8175 35.425Z" fill="#1EA133"/>
<path d="M4.69813 35.425H3.71185C3.38457 35.425 3.11926 35.6866 3.11926 36.0092V40.992C3.11926 41.3146 3.38457 41.5762 3.71185 41.5762H4.69813C5.0254 41.5762 5.29071 41.3146 5.29071 40.992V36.0092C5.29071 35.6866 5.0254 35.425 4.69813 35.425Z" fill="#129B33"/>
<path d="M1.57886 35.425H0.592588C0.265311 35.425 0 35.6866 0 36.0092V40.992C0 41.3146 0.265311 41.5762 0.592588 41.5762H1.57886C1.90614 41.5762 2.17145 41.3146 2.17145 40.992V36.0092C2.17145 35.6866 1.90614 35.425 1.57886 35.425Z" fill="#059632"/>
<path d="M145.049 28.3391H144.063C143.736 28.3391 143.471 28.6006 143.471 28.9233V33.9061C143.471 34.2287 143.736 34.4902 144.063 34.4902H145.049C145.377 34.4902 145.642 34.2287 145.642 33.9061V28.9233C145.642 28.6006 145.377 28.3391 145.049 28.3391Z" fill="#1DCB33"/>
<path d="M141.932 28.3391H140.945C140.618 28.3391 140.353 28.6006 140.353 28.9233V33.9061C140.353 34.2287 140.618 34.4902 140.945 34.4902H141.932C142.259 34.4902 142.524 34.2287 142.524 33.9061V28.9233C142.524 28.6006 142.259 28.3391 141.932 28.3391Z" fill="#26CD34"/>
<path d="M138.812 28.3391H137.826C137.499 28.3391 137.233 28.6006 137.233 28.9233V33.9061C137.233 34.2287 137.499 34.4902 137.826 34.4902H138.812C139.14 34.4902 139.405 34.2287 139.405 33.9061V28.9233C139.405 28.6006 139.14 28.3391 138.812 28.3391Z" fill="#2FCF34"/>
<path d="M113.86 28.3391H112.874C112.547 28.3391 112.282 28.6006 112.282 28.9233V33.9061C112.282 34.2287 112.547 34.4902 112.874 34.4902H113.86C114.188 34.4902 114.453 34.2287 114.453 33.9061V28.9233C114.453 28.6006 114.188 28.3391 113.86 28.3391Z" fill="#75E037"/>
<path d="M110.741 28.3391H109.755C109.428 28.3391 109.162 28.6006 109.162 28.9233V33.9061C109.162 34.2287 109.428 34.4902 109.755 34.4902H110.741C111.068 34.4902 111.334 34.2287 111.334 33.9061V28.9233C111.334 28.6006 111.068 28.3391 110.741 28.3391Z" fill="#7EE237"/>
<path d="M107.623 28.3391H106.637C106.31 28.3391 106.044 28.6006 106.044 28.9233V33.9061C106.044 34.2287 106.31 34.4902 106.637 34.4902H107.623C107.95 34.4902 108.216 34.2287 108.216 33.9061V28.9233C108.216 28.6006 107.95 28.3391 107.623 28.3391Z" fill="#86E438"/>
<path d="M104.504 28.3391H103.518C103.19 28.3391 102.925 28.6006 102.925 28.9233V33.9061C102.925 34.2287 103.19 34.4902 103.518 34.4902H104.504C104.831 34.4902 105.096 34.2287 105.096 33.9061V28.9233C105.096 28.6006 104.831 28.3391 104.504 28.3391Z" fill="#8DE538"/>
<path d="M73.3148 28.3391H72.3285C72.0013 28.3391 71.736 28.6006 71.736 28.9233V33.9061C71.736 34.2287 72.0013 34.4902 72.3285 34.4902H73.3148C73.6421 34.4902 73.9074 34.2287 73.9074 33.9061V28.9233C73.9074 28.6006 73.6421 28.3391 73.3148 28.3391Z" fill="#ACE538"/>
<path d="M70.1956 28.3391H69.2093C68.882 28.3391 68.6167 28.6006 68.6167 28.9233V33.9061C68.6167 34.2287 68.882 34.4902 69.2093 34.4902H70.1956C70.5228 34.4902 70.7881 34.2287 70.7881 33.9061V28.9233C70.7881 28.6006 70.5228 28.3391 70.1956 28.3391Z" fill="#AFE538"/>
<path d="M67.0762 28.3391H66.0899C65.7626 28.3391 65.4973 28.6006 65.4973 28.9233V33.9061C65.4973 34.2287 65.7626 34.4902 66.0899 34.4902H67.0762C67.4035 34.4902 67.6688 34.2287 67.6688 33.9061V28.9233C67.6688 28.6006 67.4035 28.3391 67.0762 28.3391Z" fill="#B2E538"/>
<path d="M63.9583 28.3391H62.972C62.6447 28.3391 62.3794 28.6006 62.3794 28.9233V33.9061C62.3794 34.2287 62.6447 34.4902 62.972 34.4902H63.9583C64.2855 34.4902 64.5508 34.2287 64.5508 33.9061V28.9233C64.5508 28.6006 64.2855 28.3391 63.9583 28.3391Z" fill="#B6E538"/>
<path d="M51.4824 28.3391H50.4962C50.1689 28.3391 49.9036 28.6006 49.9036 28.9233V33.9061C49.9036 34.2287 50.1689 34.4902 50.4962 34.4902H51.4824C51.8097 34.4902 52.075 34.2287 52.075 33.9061V28.9233C52.075 28.6006 51.8097 28.3391 51.4824 28.3391Z" fill="#C2E538"/>
<path d="M48.363 28.3391H47.3768C47.0495 28.3391 46.7842 28.6006 46.7842 28.9233V33.9061C46.7842 34.2287 47.0495 34.4902 47.3768 34.4902H48.363C48.6903 34.4902 48.9556 34.2287 48.9556 33.9061V28.9233C48.9556 28.6006 48.6903 28.3391 48.363 28.3391Z" fill="#BDE238"/>
<path d="M45.2438 28.3391H44.2575C43.9302 28.3391 43.6649 28.6006 43.6649 28.9233V33.9061C43.6649 34.2287 43.9302 34.4902 44.2575 34.4902H45.2438C45.5711 34.4902 45.8364 34.2287 45.8364 33.9061V28.9233C45.8364 28.6006 45.5711 28.3391 45.2438 28.3391Z" fill="#B1DD37"/>
<path d="M42.1259 28.3391H41.1396C40.8123 28.3391 40.547 28.6006 40.547 28.9233V33.9061C40.547 34.2287 40.8123 34.4902 41.1396 34.4902H42.1259C42.4531 34.4902 42.7184 34.2287 42.7184 33.9061V28.9233C42.7184 28.6006 42.4531 28.3391 42.1259 28.3391Z" fill="#B4D845"/>
<path d="M32.7678 28.3391H31.7816C31.4543 28.3391 31.189 28.6006 31.189 28.9233V33.9061C31.189 34.2287 31.4543 34.4902 31.7816 34.4902H32.7678C33.0951 34.4902 33.3604 34.2287 33.3604 33.9061V28.9233C33.3604 28.6006 33.0951 28.3391 32.7678 28.3391Z" fill="#81C936"/>
<path d="M29.6499 28.3391H28.6636C28.3364 28.3391 28.071 28.6006 28.071 28.9233V33.9061C28.071 34.2287 28.3364 34.4902 28.6636 34.4902H29.6499C29.9772 34.4902 30.2425 34.2287 30.2425 33.9061V28.9233C30.2425 28.6006 29.9772 28.3391 29.6499 28.3391Z" fill="#74C436"/>
<path d="M26.5306 28.3391H25.5444C25.2171 28.3391 24.9518 28.6006 24.9518 28.9233V33.9061C24.9518 34.2287 25.2171 34.4902 25.5444 34.4902H26.5306C26.8579 34.4902 27.1232 34.2287 27.1232 33.9061V28.9233C27.1232 28.6006 26.8579 28.3391 26.5306 28.3391Z" fill="#68BF35"/>
<path d="M23.4114 28.3391H22.4251C22.0978 28.3391 21.8325 28.6006 21.8325 28.9233V33.9061C21.8325 34.2287 22.0978 34.4902 22.4251 34.4902H23.4114C23.7387 34.4902 24.004 34.2287 24.004 33.9061V28.9233C24.004 28.6006 23.7387 28.3391 23.4114 28.3391Z" fill="#5BBA35"/>
<path d="M10.9354 28.3391H9.94916C9.62188 28.3391 9.35657 28.6006 9.35657 28.9233V33.9061C9.35657 34.2287 9.62188 34.4902 9.94916 34.4902H10.9354C11.2627 34.4902 11.528 34.2287 11.528 33.9061V28.9233C11.528 28.6006 11.2627 28.3391 10.9354 28.3391Z" fill="#2BA633"/>
<path d="M7.8175 28.3391H6.83123C6.50395 28.3391 6.23865 28.6006 6.23865 28.9233V33.9061C6.23865 34.2287 6.50395 34.4902 6.83123 34.4902H7.8175C8.14478 34.4902 8.41009 34.2287 8.41009 33.9061V28.9233C8.41009 28.6006 8.14478 28.3391 7.8175 28.3391Z" fill="#1EA133"/>
<path d="M4.69813 28.3391H3.71185C3.38457 28.3391 3.11926 28.6006 3.11926 28.9233V33.9061C3.11926 34.2287 3.38457 34.4902 3.71185 34.4902H4.69813C5.0254 34.4902 5.29071 34.2287 5.29071 33.9061V28.9233C5.29071 28.6006 5.0254 28.3391 4.69813 28.3391Z" fill="#129B33"/>
<path d="M1.57886 28.3391H0.592588C0.265311 28.3391 0 28.6006 0 28.9233V33.9061C0 34.2287 0.265311 34.4902 0.592588 34.4902H1.57886C1.90614 34.4902 2.17145 34.2287 2.17145 33.9061V28.9233C2.17145 28.6006 1.90614 28.3391 1.57886 28.3391Z" fill="#059632"/>
<path d="M148.169 21.2556H147.182C146.855 21.2556 146.59 21.5172 146.59 21.8398V26.8226C146.59 27.1452 146.855 27.4067 147.182 27.4067H148.169C148.496 27.4067 148.761 27.1452 148.761 26.8226V21.8398C148.761 21.5172 148.496 21.2556 148.169 21.2556Z" fill="#14C933"/>
<path d="M145.049 21.2556H144.063C143.736 21.2556 143.471 21.5172 143.471 21.8398V26.8226C143.471 27.1452 143.736 27.4067 144.063 27.4067H145.049C145.377 27.4067 145.642 27.1452 145.642 26.8226V21.8398C145.642 21.5172 145.377 21.2556 145.049 21.2556Z" fill="#1DCB33"/>
<path d="M141.932 21.2556H140.945C140.618 21.2556 140.353 21.5172 140.353 21.8398V26.8226C140.353 27.1452 140.618 27.4067 140.945 27.4067H141.932C142.259 27.4067 142.524 27.1452 142.524 26.8226V21.8398C142.524 21.5172 142.259 21.2556 141.932 21.2556Z" fill="#26CD34"/>
<path d="M113.86 21.2556H112.874C112.547 21.2556 112.282 21.5172 112.282 21.8398V26.8226C112.282 27.1452 112.547 27.4067 112.874 27.4067H113.86C114.188 27.4067 114.453 27.1452 114.453 26.8226V21.8398C114.453 21.5172 114.188 21.2556 113.86 21.2556Z" fill="#75E037"/>
<path d="M110.741 21.2556H109.755C109.428 21.2556 109.162 21.5172 109.162 21.8398V26.8226C109.162 27.1452 109.428 27.4067 109.755 27.4067H110.741C111.068 27.4067 111.334 27.1452 111.334 26.8226V21.8398C111.334 21.5172 111.068 21.2556 110.741 21.2556Z" fill="#7EE237"/>
<path d="M107.623 21.2556H106.637C106.31 21.2556 106.044 21.5172 106.044 21.8398V26.8226C106.044 27.1452 106.31 27.4067 106.637 27.4067H107.623C107.95 27.4067 108.216 27.1452 108.216 26.8226V21.8398C108.216 21.5172 107.95 21.2556 107.623 21.2556Z" fill="#86E438"/>
<path d="M104.504 21.2556H103.518C103.19 21.2556 102.925 21.5172 102.925 21.8398V26.8226C102.925 27.1452 103.19 27.4067 103.518 27.4067H104.504C104.831 27.4067 105.096 27.1452 105.096 26.8226V21.8398C105.096 21.5172 104.831 21.2556 104.504 21.2556Z" fill="#8DE538"/>
<path d="M73.3148 21.2556H72.3285C72.0013 21.2556 71.736 21.5172 71.736 21.8398V26.8226C71.736 27.1452 72.0013 27.4067 72.3285 27.4067H73.3148C73.6421 27.4067 73.9074 27.1452 73.9074 26.8226V21.8398C73.9074 21.5172 73.6421 21.2556 73.3148 21.2556Z" fill="#ACE538"/>
<path d="M70.1956 21.2556H69.2093C68.882 21.2556 68.6167 21.5172 68.6167 21.8398V26.8226C68.6167 27.1452 68.882 27.4067 69.2093 27.4067H70.1956C70.5228 27.4067 70.7881 27.1452 70.7881 26.8226V21.8398C70.7881 21.5172 70.5228 21.2556 70.1956 21.2556Z" fill="#AFE538"/>
<path d="M67.0762 21.2556H66.0899C65.7626 21.2556 65.4973 21.5172 65.4973 21.8398V26.8226C65.4973 27.1452 65.7626 27.4067 66.0899 27.4067H67.0762C67.4035 27.4067 67.6688 27.1452 67.6688 26.8226V21.8398C67.6688 21.5172 67.4035 21.2556 67.0762 21.2556Z" fill="#B2E538"/>
<path d="M63.9583 21.2556H62.972C62.6447 21.2556 62.3794 21.5172 62.3794 21.8398V26.8226C62.3794 27.1452 62.6447 27.4067 62.972 27.4067H63.9583C64.2855 27.4067 64.5508 27.1452 64.5508 26.8226V21.8398C64.5508 21.5172 64.2855 21.2556 63.9583 21.2556Z" fill="#B6E538"/>
<path d="M51.4824 21.2556H50.4962C50.1689 21.2556 49.9036 21.5172 49.9036 21.8398V26.8226C49.9036 27.1452 50.1689 27.4067 50.4962 27.4067H51.4824C51.8097 27.4067 52.075 27.1452 52.075 26.8226V21.8398C52.075 21.5172 51.8097 21.2556 51.4824 21.2556Z" fill="#C2E538"/>
<path d="M48.363 21.2556H47.3768C47.0495 21.2556 46.7842 21.5172 46.7842 21.8398V26.8226C46.7842 27.1452 47.0495 27.4067 47.3768 27.4067H48.363C48.6903 27.4067 48.9556 27.1452 48.9556 26.8226V21.8398C48.9556 21.5172 48.6903 21.2556 48.363 21.2556Z" fill="#BDE238"/>
<path d="M45.2438 21.2556H44.2575C43.9302 21.2556 43.6649 21.5172 43.6649 21.8398V26.8226C43.6649 27.1452 43.9302 27.4067 44.2575 27.4067H45.2438C45.5711 27.4067 45.8364 27.1452 45.8364 26.8226V21.8398C45.8364 21.5172 45.5711 21.2556 45.2438 21.2556Z" fill="#B1DD37"/>
<path d="M42.1259 21.2556H41.1396C40.8123 21.2556 40.547 21.5172 40.547 21.8398V26.8226C40.547 27.1452 40.8123 27.4067 41.1396 27.4067H42.1259C42.4531 27.4067 42.7184 27.1452 42.7184 26.8226V21.8398C42.7184 21.5172 42.4531 21.2556 42.1259 21.2556Z" fill="#B4D845"/>
<path d="M32.7678 21.2556H31.7816C31.4543 21.2556 31.189 21.5172 31.189 21.8398V26.8226C31.189 27.1452 31.4543 27.4067 31.7816 27.4067H32.7678C33.0951 27.4067 33.3604 27.1452 33.3604 26.8226V21.8398C33.3604 21.5172 33.0951 21.2556 32.7678 21.2556Z" fill="#81C936"/>
<path d="M29.6499 21.2556H28.6636C28.3364 21.2556 28.071 21.5172 28.071 21.8398V26.8226C28.071 27.1452 28.3364 27.4067 28.6636 27.4067H29.6499C29.9772 27.4067 30.2425 27.1452 30.2425 26.8226V21.8398C30.2425 21.5172 29.9772 21.2556 29.6499 21.2556Z" fill="#74C436"/>
<path d="M26.5306 21.2556H25.5444C25.2171 21.2556 24.9518 21.5172 24.9518 21.8398V26.8226C24.9518 27.1452 25.2171 27.4067 25.5444 27.4067H26.5306C26.8579 27.4067 27.1232 27.1452 27.1232 26.8226V21.8398C27.1232 21.5172 26.8579 21.2556 26.5306 21.2556Z" fill="#68BF35"/>
<path d="M23.4114 21.2556H22.4251C22.0978 21.2556 21.8325 21.5172 21.8325 21.8398V26.8226C21.8325 27.1452 22.0978 27.4067 22.4251 27.4067H23.4114C23.7387 27.4067 24.004 27.1452 24.004 26.8226V21.8398C24.004 21.5172 23.7387 21.2556 23.4114 21.2556Z" fill="#5BBA35"/>
<path d="M10.9354 21.2556H9.94916C9.62188 21.2556 9.35657 21.5172 9.35657 21.8398V26.8226C9.35657 27.1452 9.62188 27.4067 9.94916 27.4067H10.9354C11.2627 27.4067 11.528 27.1452 11.528 26.8226V21.8398C11.528 21.5172 11.2627 21.2556 10.9354 21.2556Z" fill="#2BA633"/>
<path d="M7.8175 21.2556H6.83123C6.50395 21.2556 6.23865 21.5172 6.23865 21.8398V26.8226C6.23865 27.1452 6.50395 27.4067 6.83123 27.4067H7.8175C8.14478 27.4067 8.41009 27.1452 8.41009 26.8226V21.8398C8.41009 21.5172 8.14478 21.2556 7.8175 21.2556Z" fill="#1EA133"/>
<path d="M4.69813 21.2556H3.71185C3.38457 21.2556 3.11926 21.5172 3.11926 21.8398V26.8226C3.11926 27.1452 3.38457 27.4067 3.71185 27.4067H4.69813C5.0254 27.4067 5.29071 27.1452 5.29071 26.8226V21.8398C5.29071 21.5172 5.0254 21.2556 4.69813 21.2556Z" fill="#129B33"/>
<path d="M1.57886 21.2556H0.592588C0.265311 21.2556 0 21.5172 0 21.8398V26.8226C0 27.1452 0.265311 27.4067 0.592588 27.4067H1.57886C1.90614 27.4067 2.17145 27.1452 2.17145 26.8226V21.8398C2.17145 21.5172 1.90614 21.2556 1.57886 21.2556Z" fill="#059632"/>
<path d="M151.288 14.1719H150.302C149.975 14.1719 149.709 14.4334 149.709 14.756V19.7389C149.709 20.0615 149.975 20.323 150.302 20.323H151.288C151.615 20.323 151.881 20.0615 151.881 19.7389V14.756C151.881 14.4334 151.615 14.1719 151.288 14.1719Z" fill="#0DC733"/>
<path d="M148.169 14.1719H147.182C146.855 14.1719 146.59 14.4334 146.59 14.756V19.7389C146.59 20.0615 146.855 20.323 147.182 20.323H148.169C148.496 20.323 148.761 20.0615 148.761 19.7389V14.756C148.761 14.4334 148.496 14.1719 148.169 14.1719Z" fill="#14C933"/>
<path d="M145.049 14.1719H144.063C143.736 14.1719 143.471 14.4334 143.471 14.756V19.7389C143.471 20.0615 143.736 20.323 144.063 20.323H145.049C145.377 20.323 145.642 20.0615 145.642 19.7389V14.756C145.642 14.4334 145.377 14.1719 145.049 14.1719Z" fill="#1DCB33"/>
<path d="M141.932 14.1719H140.945C140.618 14.1719 140.353 14.4334 140.353 14.756V19.7389C140.353 20.0615 140.618 20.323 140.945 20.323H141.932C142.259 20.323 142.524 20.0615 142.524 19.7389V14.756C142.524 14.4334 142.259 14.1719 141.932 14.1719Z" fill="#3FBE49"/>
<path d="M113.86 14.1719H112.874C112.547 14.1719 112.282 14.4334 112.282 14.756V19.7389C112.282 20.0615 112.547 20.323 112.874 20.323H113.86C114.188 20.323 114.453 20.0615 114.453 19.7389V14.756C114.453 14.4334 114.188 14.1719 113.86 14.1719Z" fill="#75E037"/>
<path d="M110.741 14.1719H109.755C109.428 14.1719 109.162 14.4334 109.162 14.756V19.7389C109.162 20.0615 109.428 20.323 109.755 20.323H110.741C111.068 20.323 111.334 20.0615 111.334 19.7389V14.756C111.334 14.4334 111.068 14.1719 110.741 14.1719Z" fill="#7EE237"/>
<path d="M107.623 14.1719H106.637C106.31 14.1719 106.044 14.4334 106.044 14.756V19.7389C106.044 20.0615 106.31 20.323 106.637 20.323H107.623C107.95 20.323 108.216 20.0615 108.216 19.7389V14.756C108.216 14.4334 107.95 14.1719 107.623 14.1719Z" fill="#86E438"/>
<path d="M104.504 14.1719H103.518C103.19 14.1719 102.925 14.4334 102.925 14.756V19.7389C102.925 20.0615 103.19 20.323 103.518 20.323H104.504C104.831 20.323 105.096 20.0615 105.096 19.7389V14.756C105.096 14.4334 104.831 14.1719 104.504 14.1719Z" fill="#8DE538"/>
<path d="M95.1473 14.1719H94.1611C93.8338 14.1719 93.5685 14.4334 93.5685 14.756V19.7389C93.5685 20.0615 93.8338 20.323 94.1611 20.323H95.1473C95.4746 20.323 95.7399 20.0615 95.7399 19.7389V14.756C95.7399 14.4334 95.4746 14.1719 95.1473 14.1719Z" fill="#96E538"/>
<path d="M92.0279 14.1719H91.0417C90.7144 14.1719 90.4491 14.4334 90.4491 14.756V19.7389C90.4491 20.0615 90.7144 20.323 91.0417 20.323H92.0279C92.3552 20.323 92.6205 20.0615 92.6205 19.7389V14.756C92.6205 14.4334 92.3552 14.1719 92.0279 14.1719Z" fill="#99E538"/>
<path d="M88.9087 14.1719H87.9224C87.5952 14.1719 87.3298 14.4334 87.3298 14.756V19.7389C87.3298 20.0615 87.5952 20.323 87.9224 20.323H88.9087C89.236 20.323 89.5013 20.0615 89.5013 19.7389V14.756C89.5013 14.4334 89.236 14.1719 88.9087 14.1719Z" fill="#9CE538"/>
<path d="M85.7908 14.1719H84.8045C84.4772 14.1719 84.2119 14.4334 84.2119 14.756V19.7389C84.2119 20.0615 84.4772 20.323 84.8045 20.323H85.7908C86.1181 20.323 86.3834 20.0615 86.3834 19.7389V14.756C86.3834 14.4334 86.1181 14.1719 85.7908 14.1719Z" fill="#9FE538"/>
<path d="M73.3148 14.1719H72.3285C72.0013 14.1719 71.736 14.4334 71.736 14.756V19.7389C71.736 20.0615 72.0013 20.323 72.3285 20.323H73.3148C73.6421 20.323 73.9074 20.0615 73.9074 19.7389V14.756C73.9074 14.4334 73.6421 14.1719 73.3148 14.1719Z" fill="#ACE538"/>
<path d="M70.1956 14.1719H69.2093C68.882 14.1719 68.6167 14.4334 68.6167 14.756V19.7389C68.6167 20.0615 68.882 20.323 69.2093 20.323H70.1956C70.5228 20.323 70.7881 20.0615 70.7881 19.7389V14.756C70.7881 14.4334 70.5228 14.1719 70.1956 14.1719Z" fill="#AFE538"/>
<path d="M67.0762 14.1719H66.0899C65.7626 14.1719 65.4973 14.4334 65.4973 14.756V19.7389C65.4973 20.0615 65.7626 20.323 66.0899 20.323H67.0762C67.4035 20.323 67.6688 20.0615 67.6688 19.7389V14.756C67.6688 14.4334 67.4035 14.1719 67.0762 14.1719Z" fill="#B2E538"/>
<path d="M63.9583 14.1719H62.972C62.6447 14.1719 62.3794 14.4334 62.3794 14.756V19.7389C62.3794 20.0615 62.6447 20.323 62.972 20.323H63.9583C64.2855 20.323 64.5508 20.0615 64.5508 19.7389V14.756C64.5508 14.4334 64.2855 14.1719 63.9583 14.1719Z" fill="#B6E538"/>
<path d="M51.4824 14.1719H50.4962C50.1689 14.1719 49.9036 14.4334 49.9036 14.756V19.7389C49.9036 20.0615 50.1689 20.323 50.4962 20.323H51.4824C51.8097 20.323 52.075 20.0615 52.075 19.7389V14.756C52.075 14.4334 51.8097 14.1719 51.4824 14.1719Z" fill="#C2E538"/>
<path d="M48.363 14.1719H47.3768C47.0495 14.1719 46.7842 14.4334 46.7842 14.756V19.7389C46.7842 20.0615 47.0495 20.323 47.3768 20.323H48.363C48.6903 20.323 48.9556 20.0615 48.9556 19.7389V14.756C48.9556 14.4334 48.6903 14.1719 48.363 14.1719Z" fill="#BDE238"/>
<path d="M45.2438 14.1719H44.2575C43.9302 14.1719 43.6649 14.4334 43.6649 14.756V19.7389C43.6649 20.0615 43.9302 20.323 44.2575 20.323H45.2438C45.5711 20.323 45.8364 20.0615 45.8364 19.7389V14.756C45.8364 14.4334 45.5711 14.1719 45.2438 14.1719Z" fill="#B1DD37"/>
<path d="M42.1259 14.1719H41.1396C40.8123 14.1719 40.547 14.4334 40.547 14.756V19.7389C40.547 20.0615 40.8123 20.323 41.1396 20.323H42.1259C42.4531 20.323 42.7184 20.0615 42.7184 19.7389V14.756C42.7184 14.4334 42.4531 14.1719 42.1259 14.1719Z" fill="#B4D845"/>
<path d="M32.7678 14.1719H31.7816C31.4543 14.1719 31.189 14.4334 31.189 14.756V19.7389C31.189 20.0615 31.4543 20.323 31.7816 20.323H32.7678C33.0951 20.323 33.3604 20.0615 33.3604 19.7389V14.756C33.3604 14.4334 33.0951 14.1719 32.7678 14.1719Z" fill="#81C936"/>
<path d="M29.6499 14.1719H28.6636C28.3364 14.1719 28.071 14.4334 28.071 14.756V19.7389C28.071 20.0615 28.3364 20.323 28.6636 20.323H29.6499C29.9772 20.323 30.2425 20.0615 30.2425 19.7389V14.756C30.2425 14.4334 29.9772 14.1719 29.6499 14.1719Z" fill="#74C436"/>
<path d="M26.5306 14.1719H25.5444C25.2171 14.1719 24.9518 14.4334 24.9518 14.756V19.7389C24.9518 20.0615 25.2171 20.323 25.5444 20.323H26.5306C26.8579 20.323 27.1232 20.0615 27.1232 19.7389V14.756C27.1232 14.4334 26.8579 14.1719 26.5306 14.1719Z" fill="#68BF35"/>
<path d="M23.4114 14.1719H22.4251C22.0978 14.1719 21.8325 14.4334 21.8325 14.756V19.7389C21.8325 20.0615 22.0978 20.323 22.4251 20.323H23.4114C23.7387 20.323 24.004 20.0615 24.004 19.7389V14.756C24.004 14.4334 23.7387 14.1719 23.4114 14.1719Z" fill="#5BBA35"/>
<path d="M10.9354 14.1719H9.94916C9.62188 14.1719 9.35657 14.4334 9.35657 14.756V19.7389C9.35657 20.0615 9.62188 20.323 9.94916 20.323H10.9354C11.2627 20.323 11.528 20.0615 11.528 19.7389V14.756C11.528 14.4334 11.2627 14.1719 10.9354 14.1719Z" fill="#2BA633"/>
<path d="M7.8175 14.1719H6.83123C6.50395 14.1719 6.23865 14.4334 6.23865 14.756V19.7389C6.23865 20.0615 6.50395 20.323 6.83123 20.323H7.8175C8.14478 20.323 8.41009 20.0615 8.41009 19.7389V14.756C8.41009 14.4334 8.14478 14.1719 7.8175 14.1719Z" fill="#1EA133"/>
<path d="M4.69813 14.1719H3.71185C3.38457 14.1719 3.11926 14.4334 3.11926 14.756V19.7389C3.11926 20.0615 3.38457 20.323 3.71185 20.323H4.69813C5.0254 20.323 5.29071 20.0615 5.29071 19.7389V14.756C5.29071 14.4334 5.0254 14.1719 4.69813 14.1719Z" fill="#129B33"/>
<path d="M1.57886 14.1719H0.592588C0.265311 14.1719 0 14.4334 0 14.756V19.7389C0 20.0615 0.265311 20.323 0.592588 20.323H1.57886C1.90614 20.323 2.17145 20.0615 2.17145 19.7389V14.756C2.17145 14.4334 1.90614 14.1719 1.57886 14.1719Z" fill="#059632"/>
<path d="M154.407 7.08594H153.421C153.094 7.08594 152.829 7.34747 152.829 7.67008V12.6529C152.829 12.9755 153.094 13.2371 153.421 13.2371H154.407C154.735 13.2371 155 12.9755 155 12.6529V7.67008C155 7.34747 154.735 7.08594 154.407 7.08594Z" fill="#04C532"/>
<path d="M151.288 7.08594H150.302C149.975 7.08594 149.709 7.34747 149.709 7.67008V12.6529C149.709 12.9755 149.975 13.2371 150.302 13.2371H151.288C151.615 13.2371 151.881 12.9755 151.881 12.6529V7.67008C151.881 7.34747 151.615 7.08594 151.288 7.08594Z" fill="#0DC733"/>
<path d="M148.169 7.08594H147.182C146.855 7.08594 146.59 7.34747 146.59 7.67008V12.6529C146.59 12.9755 146.855 13.2371 147.182 13.2371H148.169C148.496 13.2371 148.761 12.9755 148.761 12.6529V7.67008C148.761 7.34747 148.496 7.08594 148.169 7.08594Z" fill="#14C933"/>
<path d="M145.049 7.08594H144.063C143.736 7.08594 143.471 7.34747 143.471 7.67008V12.6529C143.471 12.9755 143.736 13.2371 144.063 13.2371H145.049C145.377 13.2371 145.642 12.9755 145.642 12.6529V7.67008C145.642 7.34747 145.377 7.08594 145.049 7.08594Z" fill="#1DCB33"/>
<path d="M141.932 7.08594H140.945C140.618 7.08594 140.353 7.34747 140.353 7.67008V12.6529C140.353 12.9755 140.618 13.2371 140.945 13.2371H141.932C142.259 13.2371 142.524 12.9755 142.524 12.6529V7.67008C142.524 7.34747 142.259 7.08594 141.932 7.08594Z" fill="#26CD34"/>
<path d="M138.812 7.08594H137.826C137.499 7.08594 137.233 7.34747 137.233 7.67008V12.6529C137.233 12.9755 137.499 13.2371 137.826 13.2371H138.812C139.14 13.2371 139.405 12.9755 139.405 12.6529V7.67008C139.405 7.34747 139.14 7.08594 138.812 7.08594Z" fill="#2FCF34"/>
<path d="M135.693 7.08594H134.707C134.379 7.08594 134.114 7.34747 134.114 7.67008V12.6529C134.114 12.9755 134.379 13.2371 134.707 13.2371H135.693C136.02 13.2371 136.285 12.9755 136.285 12.6529V7.67008C136.285 7.34747 136.02 7.08594 135.693 7.08594Z" fill="#38D134"/>
<path d="M132.575 7.08594H131.589C131.261 7.08594 130.996 7.34747 130.996 7.67008V12.6529C130.996 12.9755 131.261 13.2371 131.589 13.2371H132.575C132.902 13.2371 133.168 12.9755 133.168 12.6529V7.67008C133.168 7.34747 132.902 7.08594 132.575 7.08594Z" fill="#41D335"/>
<path d="M129.456 7.08594H128.469C128.142 7.08594 127.877 7.34747 127.877 7.67008V12.6529C127.877 12.9755 128.142 13.2371 128.469 13.2371H129.456C129.783 13.2371 130.048 12.9755 130.048 12.6529V7.67008C130.048 7.34747 129.783 7.08594 129.456 7.08594Z" fill="#4AD535"/>
<path d="M126.336 7.08594H125.35C125.023 7.08594 124.757 7.34747 124.757 7.67008V12.6529C124.757 12.9755 125.023 13.2371 125.35 13.2371H126.336C126.664 13.2371 126.929 12.9755 126.929 12.6529V7.67008C126.929 7.34747 126.664 7.08594 126.336 7.08594Z" fill="#51D736"/>
<path d="M123.217 7.08594H122.231C121.903 7.08594 121.638 7.34747 121.638 7.67008V12.6529C121.638 12.9755 121.903 13.2371 122.231 13.2371H123.217C123.544 13.2371 123.81 12.9755 123.81 12.6529V7.67008C123.81 7.34747 123.544 7.08594 123.217 7.08594Z" fill="#5AD936"/>
<path d="M113.86 7.08594H112.874C112.547 7.08594 112.282 7.34747 112.282 7.67008V12.6529C112.282 12.9755 112.547 13.2371 112.874 13.2371H113.86C114.188 13.2371 114.453 12.9755 114.453 12.6529V7.67008C114.453 7.34747 114.188 7.08594 113.86 7.08594Z" fill="#75E037"/>
<path d="M110.741 7.08594H109.755C109.428 7.08594 109.162 7.34747 109.162 7.67008V12.6529C109.162 12.9755 109.428 13.2371 109.755 13.2371H110.741C111.068 13.2371 111.334 12.9755 111.334 12.6529V7.67008C111.334 7.34747 111.068 7.08594 110.741 7.08594Z" fill="#7EE237"/>
<path d="M107.623 7.08594H106.637C106.31 7.08594 106.044 7.34747 106.044 7.67008V12.6529C106.044 12.9755 106.31 13.2371 106.637 13.2371H107.623C107.95 13.2371 108.216 12.9755 108.216 12.6529V7.67008C108.216 7.34747 107.95 7.08594 107.623 7.08594Z" fill="#86E438"/>
<path d="M104.504 7.08594H103.518C103.19 7.08594 102.925 7.34747 102.925 7.67008V12.6529C102.925 12.9755 103.19 13.2371 103.518 13.2371H104.504C104.831 13.2371 105.096 12.9755 105.096 12.6529V7.67008C105.096 7.34747 104.831 7.08594 104.504 7.08594Z" fill="#8DE538"/>
<path d="M92.0279 7.08594H91.0417C90.7144 7.08594 90.4491 7.34747 90.4491 7.67008V12.6529C90.4491 12.9755 90.7144 13.2371 91.0417 13.2371H92.0279C92.3552 13.2371 92.6205 12.9755 92.6205 12.6529V7.67008C92.6205 7.34747 92.3552 7.08594 92.0279 7.08594Z" fill="#99E538"/>
<path d="M88.9087 7.08594H87.9224C87.5952 7.08594 87.3298 7.34747 87.3298 7.67008V12.6529C87.3298 12.9755 87.5952 13.2371 87.9224 13.2371H88.9087C89.236 13.2371 89.5013 12.9755 89.5013 12.6529V7.67008C89.5013 7.34747 89.236 7.08594 88.9087 7.08594Z" fill="#9CE538"/>
<path d="M85.7908 7.08594H84.8045C84.4772 7.08594 84.2119 7.34747 84.2119 7.67008V12.6529C84.2119 12.9755 84.4772 13.2371 84.8045 13.2371H85.7908C86.1181 13.2371 86.3834 12.9755 86.3834 12.6529V7.67008C86.3834 7.34747 86.1181 7.08594 85.7908 7.08594Z" fill="#9FE538"/>
<path d="M82.6714 7.08594H81.6851C81.3578 7.08594 81.0925 7.34747 81.0925 7.67008V12.6529C81.0925 12.9755 81.3578 13.2371 81.6851 13.2371H82.6714C82.9987 13.2371 83.264 12.9755 83.264 12.6529V7.67008C83.264 7.34747 82.9987 7.08594 82.6714 7.08594Z" fill="#A3E538"/>
<path d="M79.5521 7.08594H78.5659C78.2386 7.08594 77.9733 7.34747 77.9733 7.67008V12.6529C77.9733 12.9755 78.2386 13.2371 78.5659 13.2371H79.5521C79.8794 13.2371 80.1447 12.9755 80.1447 12.6529V7.67008C80.1447 7.34747 79.8794 7.08594 79.5521 7.08594Z" fill="#A7E43E"/>
<path d="M76.4342 7.08594H75.4479C75.1206 7.08594 74.8553 7.34747 74.8553 7.67008V12.6529C74.8553 12.9755 75.1206 13.2371 75.4479 13.2371H76.4342C76.7615 13.2371 77.0268 12.9755 77.0268 12.6529V7.67008C77.0268 7.34747 76.7615 7.08594 76.4342 7.08594Z" fill="#A9E538"/>
<path d="M73.3148 7.08594H72.3285C72.0013 7.08594 71.736 7.34747 71.736 7.67008V12.6529C71.736 12.9755 72.0013 13.2371 72.3285 13.2371H73.3148C73.6421 13.2371 73.9074 12.9755 73.9074 12.6529V7.67008C73.9074 7.34747 73.6421 7.08594 73.3148 7.08594Z" fill="#ACE538"/>
<path d="M70.1956 7.08594H69.2093C68.882 7.08594 68.6167 7.34747 68.6167 7.67008V12.6529C68.6167 12.9755 68.882 13.2371 69.2093 13.2371H70.1956C70.5228 13.2371 70.7881 12.9755 70.7881 12.6529V7.67008C70.7881 7.34747 70.5228 7.08594 70.1956 7.08594Z" fill="#AFE538"/>
<path d="M67.0762 7.08594H66.0899C65.7626 7.08594 65.4973 7.34747 65.4973 7.67008V12.6529C65.4973 12.9755 65.7626 13.2371 66.0899 13.2371H67.0762C67.4035 13.2371 67.6688 12.9755 67.6688 12.6529V7.67008C67.6688 7.34747 67.4035 7.08594 67.0762 7.08594Z" fill="#B2E538"/>
<path d="M63.9583 7.08594H62.972C62.6447 7.08594 62.3794 7.34747 62.3794 7.67008V12.6529C62.3794 12.9755 62.6447 13.2371 62.972 13.2371H63.9583C64.2855 13.2371 64.5508 12.9755 64.5508 12.6529V7.67008C64.5508 7.34747 64.2855 7.08594 63.9583 7.08594Z" fill="#B6E538"/>
<path d="M51.4824 7.08594H50.4962C50.1689 7.08594 49.9036 7.34747 49.9036 7.67008V12.6529C49.9036 12.9755 50.1689 13.2371 50.4962 13.2371H51.4824C51.8097 13.2371 52.075 12.9755 52.075 12.6529V7.67008C52.075 7.34747 51.8097 7.08594 51.4824 7.08594Z" fill="#C2E538"/>
<path d="M48.363 7.08594H47.3768C47.0495 7.08594 46.7842 7.34747 46.7842 7.67008V12.6529C46.7842 12.9755 47.0495 13.2371 47.3768 13.2371H48.363C48.6903 13.2371 48.9556 12.9755 48.9556 12.6529V7.67008C48.9556 7.34747 48.6903 7.08594 48.363 7.08594Z" fill="#BDE238"/>
<path d="M45.2438 7.08594H44.2575C43.9302 7.08594 43.6649 7.34747 43.6649 7.67008V12.6529C43.6649 12.9755 43.9302 13.2371 44.2575 13.2371H45.2438C45.5711 13.2371 45.8364 12.9755 45.8364 12.6529V7.67008C45.8364 7.34747 45.5711 7.08594 45.2438 7.08594Z" fill="#B1DD37"/>
<path d="M42.1259 7.08594H41.1396C40.8123 7.08594 40.547 7.34747 40.547 7.67008V12.6529C40.547 12.9755 40.8123 13.2371 41.1396 13.2371H42.1259C42.4531 13.2371 42.7184 12.9755 42.7184 12.6529V7.67008C42.7184 7.34747 42.4531 7.08594 42.1259 7.08594Z" fill="#B4D845"/>
<path d="M29.6499 7.08594H28.6636C28.3364 7.08594 28.071 7.34747 28.071 7.67008V12.6529C28.071 12.9755 28.3364 13.2371 28.6636 13.2371H29.6499C29.9772 13.2371 30.2425 12.9755 30.2425 12.6529V7.67008C30.2425 7.34747 29.9772 7.08594 29.6499 7.08594Z" fill="#74C436"/>
<path d="M26.5306 7.08594H25.5444C25.2171 7.08594 24.9518 7.34747 24.9518 7.67008V12.6529C24.9518 12.9755 25.2171 13.2371 25.5444 13.2371H26.5306C26.8579 13.2371 27.1232 12.9755 27.1232 12.6529V7.67008C27.1232 7.34747 26.8579 7.08594 26.5306 7.08594Z" fill="#68BF35"/>
<path d="M23.4114 7.08594H22.4251C22.0978 7.08594 21.8325 7.34747 21.8325 7.67008V12.6529C21.8325 12.9755 22.0978 13.2371 22.4251 13.2371H23.4114C23.7387 13.2371 24.004 12.9755 24.004 12.6529V7.67008C24.004 7.34747 23.7387 7.08594 23.4114 7.08594Z" fill="#5BBA35"/>
<path d="M20.2933 7.08594H19.3071C18.9798 7.08594 18.7145 7.34747 18.7145 7.67008V12.6529C18.7145 12.9755 18.9798 13.2371 19.3071 13.2371H20.2933C20.6206 13.2371 20.8859 12.9755 20.8859 12.6529V7.67008C20.8859 7.34747 20.6206 7.08594 20.2933 7.08594Z" fill="#4FB434"/>
<path d="M17.1741 7.08594H16.1878C15.8605 7.08594 15.5952 7.34747 15.5952 7.67008V12.6529C15.5952 12.9755 15.8605 13.2371 16.1878 13.2371H17.1741C17.5014 13.2371 17.7667 12.9755 17.7667 12.6529V7.67008C17.7667 7.34747 17.5014 7.08594 17.1741 7.08594Z" fill="#42AF34"/>
<path d="M14.0547 7.08594H13.0684C12.7411 7.08594 12.4758 7.34747 12.4758 7.67008V12.6529C12.4758 12.9755 12.7411 13.2371 13.0684 13.2371H14.0547C14.382 13.2371 14.6473 12.9755 14.6473 12.6529V7.67008C14.6473 7.34747 14.382 7.08594 14.0547 7.08594Z" fill="#36AA34"/>
<path d="M10.9354 7.08594H9.94916C9.62188 7.08594 9.35657 7.34747 9.35657 7.67008V12.6529C9.35657 12.9755 9.62188 13.2371 9.94916 13.2371H10.9354C11.2627 13.2371 11.528 12.9755 11.528 12.6529V7.67008C11.528 7.34747 11.2627 7.08594 10.9354 7.08594Z" fill="#2BA633"/>
<path d="M7.8175 7.08594H6.83123C6.50395 7.08594 6.23865 7.34747 6.23865 7.67008V12.6529C6.23865 12.9755 6.50395 13.2371 6.83123 13.2371H7.8175C8.14478 13.2371 8.41009 12.9755 8.41009 12.6529V7.67008C8.41009 7.34747 8.14478 7.08594 7.8175 7.08594Z" fill="#1EA133"/>
<path d="M4.69813 7.08594H3.71185C3.38457 7.08594 3.11926 7.34747 3.11926 7.67008V12.6529C3.11926 12.9755 3.38457 13.2371 3.71185 13.2371H4.69813C5.0254 13.2371 5.29071 12.9755 5.29071 12.6529V7.67008C5.29071 7.34747 5.0254 7.08594 4.69813 7.08594Z" fill="#129B33"/>
<path d="M1.57886 7.08594H0.592588C0.265311 7.08594 0 7.34747 0 7.67008V12.6529C0 12.9755 0.265311 13.2371 0.592588 13.2371H1.57886C1.90614 13.2371 2.17145 12.9755 2.17145 12.6529V7.67008C2.17145 7.34747 1.90614 7.08594 1.57886 7.08594Z" fill="#059632"/>
<path d="M154.407 -0.000244141H153.421C153.094 -0.000244141 152.829 0.261288 152.829 0.583903V5.56672C152.829 5.88934 153.094 6.15087 153.421 6.15087H154.407C154.735 6.15087 155 5.88934 155 5.56672V0.583903C155 0.261288 154.735 -0.000244141 154.407 -0.000244141Z" fill="#04C532"/>
<path d="M151.288 -0.000244141H150.302C149.975 -0.000244141 149.709 0.261288 149.709 0.583903V5.56672C149.709 5.88934 149.975 6.15087 150.302 6.15087H151.288C151.615 6.15087 151.881 5.88934 151.881 5.56672V0.583903C151.881 0.261288 151.615 -0.000244141 151.288 -0.000244141Z" fill="#0DC733"/>
<path d="M148.169 -0.000244141H147.182C146.855 -0.000244141 146.59 0.261288 146.59 0.583903V5.56672C146.59 5.88934 146.855 6.15087 147.182 6.15087H148.169C148.496 6.15087 148.761 5.88934 148.761 5.56672V0.583903C148.761 0.261288 148.496 -0.000244141 148.169 -0.000244141Z" fill="#14C933"/>
<path d="M145.049 -0.000244141H144.063C143.736 -0.000244141 143.471 0.261288 143.471 0.583903V5.56672C143.471 5.88934 143.736 6.15087 144.063 6.15087H145.049C145.377 6.15087 145.642 5.88934 145.642 5.56672V0.583903C145.642 0.261288 145.377 -0.000244141 145.049 -0.000244141Z" fill="#1DCB33"/>
<path d="M141.932 -0.000244141H140.945C140.618 -0.000244141 140.353 0.261288 140.353 0.583903V5.56672C140.353 5.88934 140.618 6.15087 140.945 6.15087H141.932C142.259 6.15087 142.524 5.88934 142.524 5.56672V0.583903C142.524 0.261288 142.259 -0.000244141 141.932 -0.000244141Z" fill="#26CD34"/>
<path d="M138.812 -0.000244141H137.826C137.499 -0.000244141 137.233 0.261288 137.233 0.583903V5.56672C137.233 5.88934 137.499 6.15087 137.826 6.15087H138.812C139.14 6.15087 139.405 5.88934 139.405 5.56672V0.583903C139.405 0.261288 139.14 -0.000244141 138.812 -0.000244141Z" fill="#2FCF34"/>
<path d="M135.693 -0.000244141H134.707C134.379 -0.000244141 134.114 0.261288 134.114 0.583903V5.56672C134.114 5.88934 134.379 6.15087 134.707 6.15087H135.693C136.02 6.15087 136.285 5.88934 136.285 5.56672V0.583903C136.285 0.261288 136.02 -0.000244141 135.693 -0.000244141Z" fill="#38D134"/>
<path d="M132.575 -0.000244141H131.589C131.261 -0.000244141 130.996 0.261288 130.996 0.583903V5.56672C130.996 5.88934 131.261 6.15087 131.589 6.15087H132.575C132.902 6.15087 133.168 5.88934 133.168 5.56672V0.583903C133.168 0.261288 132.902 -0.000244141 132.575 -0.000244141Z" fill="#41D335"/>
<path d="M129.456 -0.000244141H128.469C128.142 -0.000244141 127.877 0.261288 127.877 0.583903V5.56672C127.877 5.88934 128.142 6.15087 128.469 6.15087H129.456C129.783 6.15087 130.048 5.88934 130.048 5.56672V0.583903C130.048 0.261288 129.783 -0.000244141 129.456 -0.000244141Z" fill="#4AD535"/>
<path d="M126.336 -0.000244141H125.35C125.023 -0.000244141 124.757 0.261288 124.757 0.583903V5.56672C124.757 5.88934 125.023 6.15087 125.35 6.15087H126.336C126.664 6.15087 126.929 5.88934 126.929 5.56672V0.583903C126.929 0.261288 126.664 -0.000244141 126.336 -0.000244141Z" fill="#51D736"/>
<path d="M123.217 -0.000244141H122.231C121.903 -0.000244141 121.638 0.261288 121.638 0.583903V5.56672C121.638 5.88934 121.903 6.15087 122.231 6.15087H123.217C123.544 6.15087 123.81 5.88934 123.81 5.56672V0.583903C123.81 0.261288 123.544 -0.000244141 123.217 -0.000244141Z" fill="#5AD936"/>
<path d="M113.86 -0.000244141H112.874C112.547 -0.000244141 112.282 0.261288 112.282 0.583903V5.56672C112.282 5.88934 112.547 6.15087 112.874 6.15087H113.86C114.188 6.15087 114.453 5.88934 114.453 5.56672V0.583903C114.453 0.261288 114.188 -0.000244141 113.86 -0.000244141Z" fill="#75E037"/>
<path d="M110.741 -0.000244141H109.755C109.428 -0.000244141 109.162 0.261288 109.162 0.583903V5.56672C109.162 5.88934 109.428 6.15087 109.755 6.15087H110.741C111.068 6.15087 111.334 5.88934 111.334 5.56672V0.583903C111.334 0.261288 111.068 -0.000244141 110.741 -0.000244141Z" fill="#7EE237"/>
<path d="M107.623 -0.000244141H106.637C106.31 -0.000244141 106.044 0.261288 106.044 0.583903V5.56672C106.044 5.88934 106.31 6.15087 106.637 6.15087H107.623C107.95 6.15087 108.216 5.88934 108.216 5.56672V0.583903C108.216 0.261288 107.95 -0.000244141 107.623 -0.000244141Z" fill="#86E438"/>
<path d="M104.504 -0.000244141H103.518C103.19 -0.000244141 102.925 0.261288 102.925 0.583903V5.56672C102.925 5.88934 103.19 6.15087 103.518 6.15087H104.504C104.831 6.15087 105.096 5.88934 105.096 5.56672V0.583903C105.096 0.261288 104.831 -0.000244141 104.504 -0.000244141Z" fill="#8DE538"/>
<path d="M88.9087 -0.000244141H87.9224C87.5952 -0.000244141 87.3298 0.261288 87.3298 0.583903V5.56672C87.3298 5.88934 87.5952 6.15087 87.9224 6.15087H88.9087C89.236 6.15087 89.5013 5.88934 89.5013 5.56672V0.583903C89.5013 0.261288 89.236 -0.000244141 88.9087 -0.000244141Z" fill="#9BDF3E"/>
<path d="M85.7908 -0.000244141H84.8045C84.4772 -0.000244141 84.2119 0.261288 84.2119 0.583903V5.56672C84.2119 5.88934 84.4772 6.15087 84.8045 6.15087H85.7908C86.1181 6.15087 86.3834 5.88934 86.3834 5.56672V0.583903C86.3834 0.261288 86.1181 -0.000244141 85.7908 -0.000244141Z" fill="#9FE538"/>
<path d="M82.6714 -0.000244141H81.6851C81.3578 -0.000244141 81.0925 0.261288 81.0925 0.583903V5.56672C81.0925 5.88934 81.3578 6.15087 81.6851 6.15087H82.6714C82.9987 6.15087 83.264 5.88934 83.264 5.56672V0.583903C83.264 0.261288 82.9987 -0.000244141 82.6714 -0.000244141Z" fill="#A3E538"/>
<path d="M79.5521 -0.000244141H78.5659C78.2386 -0.000244141 77.9733 0.261288 77.9733 0.583903V5.56672C77.9733 5.88934 78.2386 6.15087 78.5659 6.15087H79.5521C79.8794 6.15087 80.1447 5.88934 80.1447 5.56672V0.583903C80.1447 0.261288 79.8794 -0.000244141 79.5521 -0.000244141Z" fill="#A5E538"/>
<path d="M76.4342 -0.000244141H75.4479C75.1206 -0.000244141 74.8553 0.261288 74.8553 0.583903V5.56672C74.8553 5.88934 75.1206 6.15087 75.4479 6.15087H76.4342C76.7615 6.15087 77.0268 5.88934 77.0268 5.56672V0.583903C77.0268 0.261288 76.7615 -0.000244141 76.4342 -0.000244141Z" fill="#A9E538"/>
<path d="M73.3148 -0.000244141H72.3285C72.0013 -0.000244141 71.736 0.261288 71.736 0.583903V5.56672C71.736 5.88934 72.0013 6.15087 72.3285 6.15087H73.3148C73.6421 6.15087 73.9074 5.88934 73.9074 5.56672V0.583903C73.9074 0.261288 73.6421 -0.000244141 73.3148 -0.000244141Z" fill="#ACE538"/>
<path d="M70.1956 -0.000244141H69.2093C68.882 -0.000244141 68.6167 0.261288 68.6167 0.583903V5.56672C68.6167 5.88934 68.882 6.15087 69.2093 6.15087H70.1956C70.5228 6.15087 70.7881 5.88934 70.7881 5.56672V0.583903C70.7881 0.261288 70.5228 -0.000244141 70.1956 -0.000244141Z" fill="#AFE538"/>
<path d="M51.4824 -0.000244141H50.4962C50.1689 -0.000244141 49.9036 0.261288 49.9036 0.583903V5.56672C49.9036 5.88934 50.1689 6.15087 50.4962 6.15087H51.4824C51.8097 6.15087 52.075 5.88934 52.075 5.56672V0.583903C52.075 0.261288 51.8097 -0.000244141 51.4824 -0.000244141Z" fill="#C2E538"/>
<path d="M48.363 -0.000244141H47.3768C47.0495 -0.000244141 46.7842 0.261288 46.7842 0.583903V5.56672C46.7842 5.88934 47.0495 6.15087 47.3768 6.15087H48.363C48.6903 6.15087 48.9556 5.88934 48.9556 5.56672V0.583903C48.9556 0.261288 48.6903 -0.000244141 48.363 -0.000244141Z" fill="#BDE238"/>
<path d="M45.2438 -0.000244141H44.2575C43.9302 -0.000244141 43.6649 0.261288 43.6649 0.583903V5.56672C43.6649 5.88934 43.9302 6.15087 44.2575 6.15087H45.2438C45.5711 6.15087 45.8364 5.88934 45.8364 5.56672V0.583903C45.8364 0.261288 45.5711 -0.000244141 45.2438 -0.000244141Z" fill="#B1DD37"/>
<path d="M42.1259 -0.000244141H41.1396C40.8123 -0.000244141 40.547 0.261288 40.547 0.583903V5.56672C40.547 5.88934 40.8123 6.15087 41.1396 6.15087H42.1259C42.4531 6.15087 42.7184 5.88934 42.7184 5.56672V0.583903C42.7184 0.261288 42.4531 -0.000244141 42.1259 -0.000244141Z" fill="#B4D845"/>
<path d="M23.4114 -0.000244141H22.4251C22.0978 -0.000244141 21.8325 0.261288 21.8325 0.583903V5.56672C21.8325 5.88934 22.0978 6.15087 22.4251 6.15087H23.4114C23.7387 6.15087 24.004 5.88934 24.004 5.56672V0.583903C24.004 0.261288 23.7387 -0.000244141 23.4114 -0.000244141Z" fill="#5BBA35"/>
<path d="M20.2933 -0.000244141H19.3071C18.9798 -0.000244141 18.7145 0.261288 18.7145 0.583903V5.56672C18.7145 5.88934 18.9798 6.15087 19.3071 6.15087H20.2933C20.6206 6.15087 20.8859 5.88934 20.8859 5.56672V0.583903C20.8859 0.261288 20.6206 -0.000244141 20.2933 -0.000244141Z" fill="#4FB434"/>
<path d="M17.1741 -0.000244141H16.1878C15.8605 -0.000244141 15.5952 0.261288 15.5952 0.583903V5.56672C15.5952 5.88934 15.8605 6.15087 16.1878 6.15087H17.1741C17.5014 6.15087 17.7667 5.88934 17.7667 5.56672V0.583903C17.7667 0.261288 17.5014 -0.000244141 17.1741 -0.000244141Z" fill="#42AF34"/>
<path d="M14.0547 -0.000244141H13.0684C12.7411 -0.000244141 12.4758 0.261288 12.4758 0.583903V5.56672C12.4758 5.88934 12.7411 6.15087 13.0684 6.15087H14.0547C14.382 6.15087 14.6473 5.88934 14.6473 5.56672V0.583903C14.6473 0.261288 14.382 -0.000244141 14.0547 -0.000244141Z" fill="#36AA34"/>
<path d="M10.9354 -0.000244141H9.94916C9.62188 -0.000244141 9.35657 0.261288 9.35657 0.583903V5.56672C9.35657 5.88934 9.62188 6.15087 9.94916 6.15087H10.9354C11.2627 6.15087 11.528 5.88934 11.528 5.56672V0.583903C11.528 0.261288 11.2627 -0.000244141 10.9354 -0.000244141Z" fill="#2BA633"/>
<path d="M7.8175 -0.000244141H6.83123C6.50395 -0.000244141 6.23865 0.261288 6.23865 0.583903V5.56672C6.23865 5.88934 6.50395 6.15087 6.83123 6.15087H7.8175C8.14478 6.15087 8.41009 5.88934 8.41009 5.56672V0.583903C8.41009 0.261288 8.14478 -0.000244141 7.8175 -0.000244141Z" fill="#1EA133"/>
<path d="M4.69813 -0.000244141H3.71185C3.38457 -0.000244141 3.11926 0.261288 3.11926 0.583903V5.56672C3.11926 5.88934 3.38457 6.15087 3.71185 6.15087H4.69813C5.0254 6.15087 5.29071 5.88934 5.29071 5.56672V0.583903C5.29071 0.261288 5.0254 -0.000244141 4.69813 -0.000244141Z" fill="#129B33"/>
<path d="M1.57886 -0.000244141H0.592588C0.265311 -0.000244141 0 0.261288 0 0.583903V5.56672C0 5.88934 0.265311 6.15087 0.592588 6.15087H1.57886C1.90614 6.15087 2.17145 5.88934 2.17145 5.56672V0.583903C2.17145 0.261288 1.90614 -0.000244141 1.57886 -0.000244141Z" fill="#059632"/>
</svg>
